<?xml version="1.0" encoding="UTF-8"?>
<svg width="1200pt" height="1200pt" version="1.1" viewBox="0 0 1200 1200" xmlns="http://www.w3.org/2000/svg">
 <path d="m633.6 232.8c-46.801 0-92.398 9.6016-134.4 30-110.4 51.602-182.4 163.2-182.4 285.6v43.199l-57.602 109.2c-10.801 20.398-10.801 42-1.1992 57.602 9.6016 16.801 28.801 25.199 51.602 25.199h7.1992v87.602c0 45.602 37.199 82.801 82.801 82.801h3.6016l85.199-13.199 172.8-30c44.398-6 75.602-46.801 70.801-90v-141.6c61.199-9.6016 106.8-62.398 106.8-126 0-70.801-57.602-128.4-128.4-128.4-70.801 0-128.4 57.602-128.4 128.4 0 63.602 46.801 116.4 106.8 126v141.6 1.1992 1.1992c2.3984 22.801-13.199 43.199-34.801 45.602h-1.1992l-172.8 30-82.801 12c-21.602-1.1992-39.602-19.199-39.602-40.801v-109.2c0-12-9.6016-20.398-20.398-20.398h-27.602c-7.1992 0-14.398-2.3984-15.602-4.8008-2.3984-3.6016-1.1992-9.6016 2.3984-16.801l60-114c1.1992-3.6016 2.3984-6 2.3984-9.6016v-49.199c0-105.6 62.398-202.8 158.4-247.2 36-16.801 75.602-26.398 116.4-26.398 150 0 272.4 122.4 272.4 272.4 0 75.602-32.398 150-88.801 201.6-4.8008 3.6016-7.1992 9.6016-7.1992 15.602v181.2c0 12 9.6016 20.398 20.398 20.398 12 0 20.398-9.6016 20.398-20.398v-172.8c61.199-58.801 94.801-140.4 94.801-225.6 2.4023-170.41-138-312.01-312-312.01zm-8.4023 320.4c0-48 38.398-86.398 86.398-86.398s86.398 38.398 86.398 86.398-38.398 86.398-86.398 86.398c-47.996 0.003906-86.398-38.398-86.398-86.398z"/>
</svg>
