<svg version="1.1" id="Layer_1" xmlns="http://www.w3.org/2000/svg" xmlns:xlink="http://www.w3.org/1999/xlink" x="0px" y="0px"
	 width="100%" viewBox="0 0 1080 1080" enable-background="new 0 0 1080 1080" xml:space="preserve">
<path fill="#F6BC1D" opacity="1.000000" stroke="none" 
	d="
M899.000000,1.000000 
	C958.020935,1.000000 1017.041809,1.000000 1076.533569,1.468680 
	C1076.984375,61.253376 1076.964355,120.569389 1076.481689,179.935852 
	C1021.137024,179.993546 966.254822,180.004807 911.372681,179.999710 
	C907.385254,179.999329 903.397766,179.880127 899.330383,179.367249 
	C899.226746,130.270691 899.212585,81.623047 899.171997,32.975426 
	C899.163086,22.316910 899.059814,11.658473 899.000000,1.000000 
z"/>
<path fill="#F6BC1D" opacity="1.000000" stroke="none" 
	d="
M184.000000,1.000000 
	C243.020889,1.000000 302.041779,1.000000 361.468140,1.465218 
	C361.868164,59.238277 361.865021,116.546120 361.847992,173.853958 
	C361.847412,175.848190 361.708649,177.842377 361.192413,179.898087 
	C301.993286,179.959579 243.236084,179.959579 184.000000,179.959579 
	C184.000000,119.893288 184.000000,60.446644 184.000000,1.000000 
z"/>
<path fill="#F6BC1D" opacity="1.000000" stroke="none" 
	d="
M5.000000,1.000000 
	C64.020897,1.000000 123.041786,1.000000 182.497253,1.467642 
	C182.931808,61.127705 182.931808,120.320129 182.931808,180.007355 
	C180.413528,180.007355 178.616318,180.007339 176.819122,180.007355 
	C158.508667,180.007584 140.198196,180.021896 121.887756,180.005127 
	C82.938179,179.969452 43.988617,179.917603 5.002806,179.415039 
	C4.977710,119.638458 4.988855,60.319229 5.000000,1.000000 
z"/>
<path fill="#F6BC1D" opacity="1.000000" stroke="none" 
	d="
M718.000000,1081.000000 
	C716.933228,1081.000000 715.866455,1081.000000 714.157837,1080.651367 
	C711.360474,1080.206909 709.205139,1080.029175 707.049622,1080.027100 
	C652.070068,1079.973145 597.090576,1079.937500 542.068298,1079.439453 
	C542.015442,1020.868958 542.004150,962.757507 542.003784,904.646118 
	C542.003784,903.484314 542.131653,902.322449 542.654663,901.130859 
	C601.669861,901.123657 660.230103,901.146240 718.851868,901.621460 
	C718.906494,961.350220 718.899536,1020.626282 718.651367,1080.030029 
	C718.273438,1080.438599 718.136719,1080.719238 718.000000,1081.000000 
z"/>
<path fill="#F6BC1D" opacity="1.000000" stroke="none" 
	d="
M540.000000,1081.000000 
	C539.555664,1081.000000 539.111328,1081.000000 538.090820,1080.651855 
	C535.525879,1080.207520 533.537231,1080.028442 531.548462,1080.026978 
	C475.405457,1079.987061 419.262451,1079.964966 363.049713,1079.480469 
	C362.979980,1019.809570 362.979980,960.598389 362.979980,901.137390 
	C422.560760,901.137390 481.196686,901.137390 539.898926,901.591614 
	C539.991333,912.038635 540.044495,922.031494 540.039001,932.024292 
	C540.011902,981.325073 539.969360,1030.625854 539.798584,1080.204590 
	C539.776672,1080.654907 539.888367,1080.827515 540.000000,1081.000000 
z"/>
<path fill="#F6BC1D" opacity="1.000000" stroke="none" 
	d="
M363.000000,1.000000 
	C421.687561,1.000000 480.375122,1.000000 539.541321,1.468592 
	C540.027832,20.603411 540.053467,39.269650 540.039978,57.935863 
	C540.010620,98.600441 539.961365,139.264999 539.458130,179.970337 
	C480.384399,179.984390 421.772614,179.957703 363.090149,179.471680 
	C363.012970,119.674889 363.006470,60.337444 363.000000,1.000000 
z"/>
<path fill="#F6BC1D" opacity="1.000000" stroke="none" 
	d="
M721.000000,1.000000 
	C779.687561,1.000000 838.375122,1.000000 897.543030,1.468573 
	C898.034729,56.123905 898.051331,110.310661 898.049011,164.497421 
	C898.048767,169.646683 897.929749,174.795959 897.406616,179.977737 
	C838.329773,179.979370 779.712097,179.948486 721.044983,179.457367 
	C720.997009,119.664764 720.998474,60.332382 721.000000,1.000000 
z"/>
<path fill="#F6BC1D" opacity="1.000000" stroke="none" 
	d="
M542.000000,1.000000 
	C600.687561,1.000000 659.375122,1.000000 718.523193,1.468609 
	C718.987122,20.933395 719.004700,39.929585 718.990845,58.925747 
	C718.961548,99.249580 718.915955,139.573395 718.418457,179.946228 
	C659.344482,179.965042 600.729004,179.934860 542.076050,179.444305 
	C542.025635,119.655945 542.012817,60.327972 542.000000,1.000000 
z"/>
<path fill="#F6BC1D" opacity="1.000000" stroke="none" 
	d="
M41.000000,1081.000000 
	C35.311958,1081.000000 29.623919,1081.000000 23.221642,1080.655762 
	C16.683918,1080.167725 10.860431,1080.023926 4.992835,1079.422852 
	C4.943672,1039.349976 4.921144,999.734314 4.940976,960.118652 
	C4.950809,940.479370 5.038558,920.840149 5.553265,901.163818 
	C41.307384,901.128723 76.599297,901.130737 111.817139,901.465210 
	C80.857681,958.824707 49.972286,1015.851807 18.798927,1073.410645 
	C20.876898,1073.578125 22.151377,1073.755737 23.427946,1073.772339 
	C36.255516,1073.939209 49.108398,1074.627441 61.902882,1074.044189 
	C71.140709,1073.622925 80.300995,1071.500977 89.867699,1070.184814 
	C92.269310,1068.861572 95.159721,1067.960083 96.200516,1066.050415 
	C113.333664,1034.614990 130.205872,1003.037415 147.195999,971.523743 
	C158.970444,949.684265 170.835251,927.893372 182.737915,906.537598 
	C182.807053,964.624817 182.798019,1022.255310 182.532410,1079.994385 
	C182.183899,1080.402100 182.091934,1080.701050 182.000000,1081.000000 
	C181.555557,1081.000000 181.111099,1081.000000 180.081573,1080.659424 
	C178.843063,1080.219238 178.189651,1080.032715 177.536163,1080.032471 
	C133.225723,1080.018921 88.915276,1080.012695 44.604889,1080.061646 
	C43.402916,1080.062988 42.201614,1080.673584 41.000000,1081.000000 
z"/>
<path fill="#F6BC1D" opacity="1.000000" stroke="none" 
	d="
M1056.000000,1081.000000 
	C1055.250000,1081.000000 1054.500000,1081.000000 1053.131958,1080.652100 
	C1050.530884,1080.206421 1048.547729,1080.023804 1046.564697,1080.023071 
	C999.215088,1080.007568 951.865417,1080.032349 904.516052,1079.931885 
	C902.704773,1079.928101 900.895996,1078.750366 899.543030,1078.037476 
	C952.103760,1077.955322 1004.207520,1077.955322 1056.311279,1077.955322 
	C1056.585205,1077.417847 1056.859131,1076.880249 1057.133057,1076.342773 
	C1031.001831,1030.690918 992.158569,1000.685852 941.432251,984.967773 
	C942.864990,983.272705 943.844727,982.154907 944.779724,981.000916 
	C957.350342,965.487183 965.344360,947.920044 967.385925,928.015503 
	C968.300354,919.100952 967.891541,910.050720 968.546387,901.067261 
	C1004.968140,901.117676 1040.926758,901.162903 1076.928711,901.662109 
	C1076.995361,910.271179 1077.038086,918.426331 1077.039307,926.581543 
	C1077.047241,975.849670 1077.068481,1025.117798 1076.961914,1074.385742 
	C1076.957642,1076.320923 1075.703735,1078.253418 1074.564453,1080.127686 
	C1068.064575,1080.378784 1062.032349,1080.689331 1056.000000,1081.000000 
z"/>
<path fill="#383C34" opacity="1.000000" stroke="none" 
	d="
M5.091057,901.200867 
	C5.038558,920.840149 4.950809,940.479370 4.940976,960.118652 
	C4.921144,999.734314 4.943672,1039.349976 4.964313,1079.702393 
	C4.986599,1080.626099 4.993299,1080.812988 5.000000,1081.000000 
	C3.666667,1081.000000 2.333333,1081.000000 1.000000,1081.000000 
	C1.000000,722.500000 0.998342,364.000000 1.043157,5.500005 
	C1.043398,3.565715 -0.462265,0.191821 4.500001,1.000000 
	C4.988855,60.319229 4.977710,119.638458 4.981091,179.732452 
	C5.011183,180.718323 5.026751,180.929459 5.007430,181.596588 
	C4.998203,241.315109 5.023863,300.577667 5.037184,360.167999 
	C5.033050,360.714325 5.041255,360.932831 5.004142,361.605957 
	C4.985574,421.329010 5.012324,480.597534 5.022891,540.187500 
	C5.023457,540.722900 5.040206,540.936890 5.016727,541.605896 
	C4.962057,557.708008 4.926450,573.355103 4.937217,589.002136 
	C4.967228,632.612976 5.016474,676.223816 5.045985,720.170715 
	C5.044829,720.730103 5.055812,720.953491 5.019485,721.632324 
	C4.994317,781.347412 5.016460,840.607117 5.026746,900.201294 
	C5.040277,900.757507 5.065667,900.979187 5.091057,901.200867 
z"/>
<path fill="#7D6115" opacity="1.000000" stroke="none" 
	d="
M5.042318,181.140625 
	C5.026751,180.929459 5.011183,180.718323 5.017331,180.189789 
	C43.988617,179.917603 82.938179,179.969452 121.887756,180.005127 
	C140.198196,180.021896 158.508667,180.007584 176.819122,180.007355 
	C178.616318,180.007339 180.413528,180.007355 182.931808,180.007355 
	C182.931808,120.320129 182.931808,61.127705 182.965912,1.467642 
	C183.000000,1.000000 183.500000,1.000000 183.750000,1.000000 
	C184.000000,60.446644 184.000000,119.893288 184.000000,179.959579 
	C243.236084,179.959579 301.993286,179.959579 361.574036,179.928040 
	C362.651947,179.907990 362.906403,179.919495 363.160858,179.931015 
	C421.772614,179.957703 480.384399,179.984390 539.823669,179.960526 
	C541.138672,179.908203 541.626099,179.906433 542.113586,179.904678 
	C600.729004,179.934860 659.344482,179.965042 718.788208,179.942535 
	C720.109131,179.899109 720.601746,179.908356 721.094421,179.917603 
	C779.712097,179.948486 838.329773,179.979370 897.793335,179.951904 
	C898.896362,179.867737 899.153381,179.841949 899.410339,179.816162 
	C903.397766,179.880127 907.385254,179.999329 911.372681,179.999710 
	C966.254822,180.004807 1021.137024,179.993546 1076.479004,180.249420 
	C1076.931885,180.721420 1076.924927,180.930313 1076.528809,181.082855 
	C1075.094604,181.085327 1074.049438,181.144180 1072.538818,181.143570 
	C1024.842896,181.066360 977.612305,181.038589 930.381714,181.039856 
	C921.570862,181.040085 912.759949,181.156815 903.725281,181.178040 
	C903.501465,181.136307 903.053589,181.218613 902.715454,181.158875 
	C901.921875,181.127472 901.466370,181.155807 900.751831,181.129364 
	C900.142395,181.115540 899.791992,181.156479 899.041138,181.158051 
	C898.372925,181.101730 898.105225,181.084793 897.379578,181.044876 
	C838.319458,181.048477 779.717224,181.075043 720.736938,181.102249 
	C719.854980,181.111496 719.351135,181.120117 718.390198,181.085754 
	C659.337769,181.069366 600.742371,181.095978 541.769409,181.129211 
	C540.888489,181.123795 540.385315,181.111755 539.422302,181.062180 
	C480.371429,181.043396 421.780365,181.062164 362.794739,181.097870 
	C362.137695,181.134445 361.875183,181.154068 361.171326,181.120956 
	C301.992401,181.068237 243.254868,181.068237 184.396698,181.068237 
	C184.396698,241.015900 184.396698,300.344788 184.396698,360.006287 
	C186.802841,360.006287 188.784500,360.006287 190.766159,360.006287 
	C230.575165,360.006287 270.384155,360.022095 310.193176,359.998901 
	C327.346863,359.988922 344.500488,359.898193 362.030243,359.872772 
	C362.657166,359.911285 362.907959,359.921173 363.616638,359.960510 
	C422.684418,359.965240 481.294373,359.940552 540.275024,359.913147 
	C541.140137,359.903564 541.634521,359.896698 542.587952,359.927673 
	C601.654724,359.939667 660.262451,359.913879 719.239563,359.888916 
	C720.101257,359.901215 720.593567,359.912689 721.548035,359.957336 
	C780.624329,359.972778 839.238403,359.955048 898.230225,359.917145 
	C898.859009,359.873993 899.110107,359.851044 899.804504,359.879517 
	C919.183167,360.009155 938.118591,360.087341 956.928711,360.346680 
	C956.609436,360.763855 956.363525,360.916138 955.592407,361.009003 
	C936.572327,361.095215 918.025574,361.157104 899.060608,361.177673 
	C898.362793,361.118835 898.083191,361.101318 897.347595,361.069275 
	C838.308044,361.078369 779.724609,361.101959 720.755127,361.127991 
	C719.854614,361.138550 719.340088,361.146667 718.369995,361.110718 
	C659.334656,361.095459 600.754883,361.124237 541.787842,361.157410 
	C540.884644,361.150696 540.368713,361.139526 539.394409,361.096985 
	C480.357574,361.073547 421.778992,361.081451 362.789307,361.109924 
	C362.104614,361.152283 361.831055,361.174042 361.119751,361.143066 
	C301.951721,361.090363 243.221405,361.090363 184.406860,361.090363 
	C184.406860,421.052979 184.406860,480.377838 184.406860,540.003113 
	C186.823517,540.003113 188.808304,540.003113 190.793091,540.003113 
	C228.932892,540.003113 267.072693,540.019714 305.212494,539.996033 
	C324.029999,539.984314 342.847473,539.898254 362.036591,539.873718 
	C362.656128,539.912476 362.903992,539.923218 363.609894,539.968018 
	C422.685028,539.976257 481.302124,539.950500 540.285034,539.917114 
	C541.138733,539.906616 541.626648,539.903748 542.573975,539.945435 
	C601.652405,539.962402 660.271301,539.934814 719.257690,539.901855 
	C720.115051,539.903137 720.604858,539.909607 721.556030,539.954712 
	C751.992798,540.046326 781.968323,540.099365 811.824341,540.341797 
	C811.504761,540.770020 811.253601,540.927429 810.486572,541.011230 
	C780.388977,541.050110 750.756165,541.081238 720.744446,541.112915 
	C719.860291,541.118774 719.355103,541.123962 718.392212,541.090698 
	C659.338379,541.078369 600.742188,541.104431 541.769165,541.135742 
	C540.890076,541.130371 540.387756,541.119690 539.425171,541.075806 
	C480.372375,541.061707 421.779877,541.080811 362.792999,541.114929 
	C362.136139,541.147217 361.873627,541.164551 361.169922,541.128723 
	C283.809265,541.063477 206.889801,541.036804 129.970337,541.045105 
	C88.332542,541.049561 46.694748,541.113647 5.056956,541.150818 
	C5.040206,540.936890 5.023457,540.722900 5.487885,540.236389 
	C64.748833,539.963806 123.528610,539.963806 182.469757,539.963806 
	C182.469757,480.062592 182.469757,420.710907 182.469757,361.337982 
	C181.356552,361.212769 180.699371,361.073975 180.042221,361.074188 
	C121.711304,361.093048 63.380383,361.122559 5.049461,361.151367 
	C5.041255,360.932831 5.033050,360.714325 5.500979,360.226196 
	C64.756798,359.956604 123.536484,359.956604 182.464340,359.956604 
	C182.464340,300.041962 182.464340,240.692337 182.464340,181.030869 
	C175.679901,181.030869 169.357758,181.027206 163.035614,181.031464 
	C110.371185,181.067032 57.706749,181.104034 5.042318,181.140625 
z"/>
<path fill="#2F383F" opacity="1.000000" stroke="none" 
	d="
M1078.000000,1.000000 
	C1079.654419,1.048076 1081.871704,0.378562 1081.024292,3.506567 
	C1080.855957,4.127651 1081.000000,4.833333 1081.000000,5.500000 
	C1081.000000,362.500000 1081.003540,719.500000 1080.858765,1076.500000 
	C1080.858276,1077.788818 1083.328491,1081.127441 1078.474609,1080.531860 
	C1077.935303,1020.254089 1077.906128,960.444397 1077.910767,900.634766 
	C1077.924927,717.543457 1077.953979,534.452209 1077.973267,351.360901 
	C1077.985718,234.573929 1077.991333,117.786964 1078.000000,1.000000 
z"/>
<path fill="#71540D" opacity="1.000000" stroke="none" 
	d="
M1077.750000,1.000000 
	C1077.991333,117.786964 1077.985718,234.573929 1077.973267,351.360901 
	C1077.953979,534.452209 1077.924927,717.543457 1077.910767,900.634766 
	C1077.906128,960.444397 1077.935303,1020.254089 1077.974609,1080.531860 
	C1077.250000,1081.000000 1076.500000,1081.000000 1075.382202,1080.796631 
	C1075.014404,1080.593384 1075.032104,1080.187134 1075.032104,1080.187134 
	C1075.703735,1078.253418 1076.957642,1076.320923 1076.961914,1074.385742 
	C1077.068481,1025.117798 1077.047241,975.849670 1077.039307,926.581543 
	C1077.038086,918.426331 1076.995361,910.271179 1076.949951,901.332214 
	C1076.930786,900.328369 1076.933838,900.108215 1076.973511,899.428589 
	C1077.020752,886.981384 1077.048218,874.993652 1077.039429,863.005920 
	C1077.004883,815.721680 1076.958862,768.437500 1076.923096,720.830933 
	C1076.928467,720.293701 1076.927734,720.078735 1076.966553,719.405151 
	C1077.017822,701.965820 1077.049072,684.985229 1077.037964,668.004639 
	C1077.010010,625.720215 1076.962891,583.435730 1076.931396,540.834229 
	C1076.938110,540.305664 1076.936890,540.094238 1076.971802,539.422729 
	C1077.018677,481.025208 1077.031006,423.087830 1077.033447,365.150452 
	C1077.033447,363.098846 1076.935425,361.047211 1076.945312,358.530823 
	C1077.019165,335.741516 1077.052490,313.416992 1077.037964,291.092438 
	C1077.014282,254.441345 1076.959595,217.790298 1076.917847,181.139221 
	C1076.924927,180.930313 1076.931885,180.721420 1076.941528,180.198975 
	C1076.964355,120.569389 1076.984375,61.253376 1077.002197,1.468680 
	C1077.000000,1.000000 1077.500000,1.000000 1077.750000,1.000000 
z"/>
<path fill="#AC8114" opacity="1.000000" stroke="none" 
	d="
M721.044983,179.457367 
	C720.601746,179.908356 720.109131,179.899109 719.246704,179.893539 
	C718.915955,139.573395 718.961548,99.249580 718.990845,58.925747 
	C719.004700,39.929585 718.987122,20.933395 718.991882,1.468609 
	C719.444458,1.000000 719.888916,1.000000 720.666687,1.000000 
	C720.998474,60.332382 720.997009,119.664764 721.044983,179.457367 
z"/>
<path fill="#AC8114" opacity="1.000000" stroke="none" 
	d="
M542.076050,179.444305 
	C541.626099,179.906433 541.138672,179.908203 540.285645,179.919769 
	C539.961365,139.264999 540.010620,98.600441 540.039978,57.935863 
	C540.053467,39.269650 540.027832,20.603411 540.010010,1.468592 
	C540.444458,1.000000 540.888916,1.000000 541.666687,1.000000 
	C542.012817,60.327972 542.025635,119.655945 542.076050,179.444305 
z"/>
<path fill="#7D6115" opacity="1.000000" stroke="none" 
	d="
M182.468658,1081.000000 
	C182.091934,1080.701050 182.183899,1080.402100 182.868835,1080.007080 
	C183.686157,1079.916504 183.910507,1079.922119 184.592911,1079.965942 
	C232.627930,1080.007935 280.204895,1080.022949 327.781891,1080.007690 
	C339.091034,1080.004028 350.400208,1079.899658 362.061554,1079.870850 
	C362.648987,1079.913574 362.884216,1079.926880 363.119446,1079.940063 
	C419.262451,1079.964966 475.405457,1079.987061 531.548462,1080.026978 
	C533.537231,1080.028442 535.525879,1080.207520 537.757324,1080.651855 
	C419.645782,1081.000000 301.291534,1081.000000 182.468658,1081.000000 
z"/>
<path fill="#7D6115" opacity="1.000000" stroke="none" 
	d="
M899.086060,1078.119629 
	C900.895996,1078.750366 902.704773,1079.928101 904.516052,1079.931885 
	C951.865417,1080.032349 999.215088,1080.007568 1046.564697,1080.023071 
	C1048.547729,1080.023804 1050.530884,1080.206421 1052.756958,1080.652100 
	C941.645752,1081.000000 830.291565,1081.000000 718.468628,1081.000000 
	C718.136719,1080.719238 718.273438,1080.438599 719.013428,1080.031250 
	C720.099182,1079.913940 720.581543,1079.923096 721.526978,1079.967285 
	C769.281860,1080.005127 816.573730,1080.008301 863.865662,1080.010864 
	C873.856995,1080.011475 883.849548,1080.088013 893.838135,1079.921875 
	C895.232422,1079.898682 896.606812,1078.679810 898.269897,1077.982422 
	C898.728333,1078.006714 898.907166,1078.063110 899.086060,1078.119629 
z"/>
<path fill="#86680E" opacity="1.000000" stroke="none" 
	d="
M899.330383,179.367249 
	C899.153381,179.841949 898.896362,179.867737 898.252563,179.919373 
	C897.929749,174.795959 898.048767,169.646683 898.049011,164.497421 
	C898.051331,110.310661 898.034729,56.123905 898.011719,1.468573 
	C898.000000,1.000000 898.500000,1.000000 898.750000,1.000000 
	C899.059814,11.658473 899.163086,22.316910 899.171997,32.975426 
	C899.212585,81.623047 899.226746,130.270691 899.330383,179.367249 
z"/>
<path fill="#86680E" opacity="1.000000" stroke="none" 
	d="
M363.090149,179.471680 
	C362.906403,179.919495 362.651947,179.907990 362.015930,179.866547 
	C361.708649,177.842377 361.847412,175.848190 361.847992,173.853958 
	C361.865021,116.546120 361.868164,59.238277 361.936768,1.465218 
	C362.000000,1.000000 362.500000,1.000000 362.750000,1.000000 
	C363.006470,60.337444 363.012970,119.674889 363.090149,179.471680 
z"/>
<path fill="#7D6115" opacity="1.000000" stroke="none" 
	d="
M540.468628,1081.000000 
	C539.888367,1080.827515 539.776672,1080.654907 540.161865,1080.209229 
	C541.142822,1079.923462 541.626892,1079.911133 542.111023,1079.898682 
	C597.090576,1079.937500 652.070068,1079.973145 707.049622,1080.027100 
	C709.205139,1080.029175 711.360474,1080.206909 713.757935,1080.651367 
	C656.312439,1081.000000 598.624878,1081.000000 540.468628,1081.000000 
z"/>
<path fill="#7D6115" opacity="1.000000" stroke="none" 
	d="
M41.468658,1081.000000 
	C42.201614,1080.673584 43.402916,1080.062988 44.604889,1080.061646 
	C88.915276,1080.012695 133.225723,1080.018921 177.536163,1080.032471 
	C178.189651,1080.032715 178.843063,1080.219238 179.748260,1080.659424 
	C133.979111,1081.000000 87.958214,1081.000000 41.468658,1081.000000 
z"/>
<path fill="#7D6115" opacity="1.000000" stroke="none" 
	d="
M1074.564453,1080.127686 
	C1075.032104,1080.187134 1075.014404,1080.593384 1075.007202,1080.796631 
	C1068.978882,1081.000000 1062.957642,1081.000000 1056.468262,1081.000000 
	C1062.032349,1080.689331 1068.064575,1080.378784 1074.564453,1080.127686 
z"/>
<path fill="#7D6115" opacity="1.000000" stroke="none" 
	d="
M5.467939,1081.000000 
	C4.993299,1080.812988 4.986599,1080.626099 5.008421,1080.159790 
	C10.860431,1080.023926 16.683918,1080.167725 22.753704,1080.655762 
	C17.311958,1081.000000 11.623919,1081.000000 5.467939,1081.000000 
z"/>
<path fill="#86680E" opacity="1.000000" stroke="none" 
	d="
M363.049713,1079.480469 
	C362.884216,1079.926880 362.648987,1079.913574 362.119446,1079.417969 
	C361.835938,1021.951233 361.847534,964.966736 361.856628,907.982300 
	C361.857727,901.098633 361.851471,901.089844 355.142242,901.087769 
	C298.491425,901.070435 241.840591,901.056519 185.252991,900.802368 
	C185.488113,900.264282 185.735016,900.053101 186.520554,899.958374 
	C245.111694,899.987244 303.239197,899.987244 362.084320,899.987244 
	C362.084320,882.461121 362.084320,865.700256 362.337006,848.956482 
	C362.754700,849.009277 362.919739,849.045044 363.043762,849.542847 
	C363.002808,866.560608 363.002808,883.116333 363.002808,899.929016 
	C422.504486,899.929016 481.211548,899.929016 540.285339,899.925171 
	C541.140991,899.915894 541.630005,899.910461 542.578186,899.949585 
	C601.650452,899.962158 660.263428,899.930176 719.245239,899.899292 
	C720.105530,899.910095 720.596985,899.919739 721.550537,899.962891 
	C760.805481,899.990051 799.598511,899.983765 838.552246,900.317505 
	C838.682312,902.144531 838.651611,903.631592 838.433411,904.784607 
	C838.389282,901.012573 836.110779,901.058105 833.620239,901.061768 
	C796.136902,901.116455 758.653442,901.127441 720.773621,901.144287 
	C719.848267,901.149475 719.319275,901.159119 718.790344,901.168762 
	C660.230103,901.146240 601.669861,901.123657 542.259888,901.125793 
	C540.884338,901.146118 540.358459,901.141724 539.832642,901.137329 
	C481.196686,901.137390 422.560760,901.137390 362.979980,901.137390 
	C362.979980,960.598389 362.979980,1019.809570 363.049713,1079.480469 
z"/>
<path fill="#AC8114" opacity="1.000000" stroke="none" 
	d="
M718.851868,901.621460 
	C719.319275,901.159119 719.848267,901.149475 720.705200,901.596802 
	C721.043457,961.346619 721.053711,1020.639404 721.063965,1079.932251 
	C720.581543,1079.923096 720.099182,1079.913940 719.254639,1079.903564 
	C718.899536,1020.626282 718.906494,961.350220 718.851868,901.621460 
z"/>
<path fill="#AC8114" opacity="1.000000" stroke="none" 
	d="
M539.898926,901.591553 
	C540.358459,901.141724 540.884338,901.146118 541.804932,901.155579 
	C542.131653,902.322449 542.003784,903.484314 542.003784,904.646118 
	C542.004150,962.757507 542.015442,1020.868958 542.068298,1079.439453 
	C541.626892,1079.911133 541.142822,1079.923462 540.295471,1079.931274 
	C539.969360,1030.625854 540.011902,981.325073 540.039001,932.024292 
	C540.044495,922.031494 539.991333,912.038635 539.898926,901.591553 
z"/>
<path fill="#EE3801" opacity="1.000000" stroke="none" 
	d="
M186.056931,899.929565 
	C185.735016,900.053101 185.488113,900.264282 185.077057,901.091919 
	C184.500870,902.654602 184.163834,903.688660 183.579529,904.897644 
	C183.108063,905.408691 182.883881,905.744751 182.659698,906.080811 
	C170.835251,927.893372 158.970444,949.684265 147.195999,971.523743 
	C130.205872,1003.037415 113.333664,1034.614990 96.200516,1066.050415 
	C95.159721,1067.960083 92.269310,1068.861572 89.532822,1069.989258 
	C75.836006,1069.406860 62.845898,1069.067261 49.183704,1068.709961 
	C63.160995,1042.813843 76.694664,1017.614746 90.344902,992.478943 
	C110.117340,956.069763 130.008286,919.724915 149.782074,883.316467 
	C161.699463,861.373657 173.451019,839.340881 185.347977,817.386963 
	C201.289642,787.969299 217.314926,758.597046 233.229660,729.164917 
	C233.917953,727.891907 233.859848,726.215271 234.384979,724.559143 
	C235.566391,724.644348 236.593445,724.737915 237.446381,725.172852 
	C262.958588,738.184387 288.445892,751.244751 313.954102,764.264160 
	C329.670563,772.285828 345.414764,780.253052 361.311249,788.401001 
	C361.909027,788.675476 362.342041,788.793762 363.027100,789.173462 
	C366.799255,791.056213 370.319427,792.677490 373.992798,794.598816 
	C378.854370,797.333679 383.898346,799.295410 388.179901,802.332092 
	C392.762604,805.582275 394.779877,803.989075 397.427765,799.970947 
	C416.708130,770.712524 436.228851,741.612610 455.588837,712.406372 
	C481.106140,673.911316 506.545929,635.364929 532.376221,596.860229 
	C535.154724,598.287598 537.576050,599.695312 540.169678,601.304626 
	C540.812988,601.738708 541.284119,601.971252 541.965332,602.469482 
	C576.355591,626.102661 610.513000,649.503540 644.727539,672.820435 
	C657.766052,681.705994 670.936035,690.398743 684.225952,699.447388 
	C689.831543,703.474792 695.257202,707.234314 700.979370,711.199219 
	C801.341309,586.739868 901.345215,462.724518 1002.255859,337.584778 
	C994.600586,338.294861 988.542297,338.794617 982.498413,339.431091 
	C971.760925,340.561829 961.031799,341.772797 950.299927,342.956329 
	C947.750732,343.237457 945.623230,342.966125 945.217407,339.758728 
	C943.841003,328.880219 942.418152,318.007568 941.313599,307.034851 
	C942.409485,306.666779 943.204773,306.396545 944.441650,306.135223 
	C950.255493,305.405090 955.627747,304.666077 961.378174,303.954163 
	C963.189697,303.688232 964.622986,303.395203 966.488037,303.115356 
	C970.280579,302.680725 973.641418,302.232880 977.408691,301.789581 
	C989.208679,300.160767 1000.602295,298.527435 1012.422729,296.919495 
	C1022.890808,295.460907 1032.932007,293.976898 1043.402344,292.474854 
	C1045.536865,292.253174 1047.242188,292.049469 1049.305542,291.874664 
	C1050.785645,291.639862 1051.907593,291.376160 1053.459717,291.119202 
	C1057.104858,291.086914 1060.319946,291.047882 1063.484131,291.203979 
	C1063.456543,291.682892 1063.575806,291.917999 1063.780273,292.565796 
	C1064.220093,301.351257 1064.671021,309.675323 1065.079590,318.332428 
	C1065.075684,319.110352 1065.114258,319.555267 1065.115723,320.418457 
	C1065.201172,322.227173 1065.323608,323.617523 1065.393066,325.414917 
	C1065.764526,332.209930 1066.188721,338.597992 1066.523682,345.387421 
	C1066.716797,349.891968 1066.998901,353.995117 1067.229858,358.393188 
	C1067.246338,359.077026 1067.314087,359.465881 1067.323242,360.290222 
	C1067.251953,361.554291 1067.186646,362.385864 1067.234497,363.210876 
	C1068.165649,379.251984 1069.124023,395.291565 1070.036865,411.333710 
	C1070.176758,413.790497 1070.659058,416.585266 1066.462158,416.530365 
	C1058.160767,416.552521 1050.182617,416.445343 1042.259644,417.055695 
	C1037.667603,417.409393 1036.404907,415.357880 1036.196167,411.491821 
	C1035.811279,404.365997 1035.436157,397.238861 1034.956787,390.119049 
	C1034.326782,380.760559 1033.599854,371.408600 1032.822998,360.804138 
	C1028.378540,366.351013 1024.642578,370.899078 1021.033081,375.545380 
	C1015.549133,382.604614 1010.152832,389.731934 1004.421387,396.967560 
	C999.794312,402.344971 995.411865,407.542084 991.145447,412.832855 
	C972.276794,436.232208 953.399963,459.625244 934.609253,483.087128 
	C922.676453,497.986206 910.889404,513.002075 898.806274,528.110168 
	C898.365173,528.548096 898.154968,528.841492 897.650696,529.265869 
	C894.648987,532.863770 891.941345,536.330811 889.114624,540.052795 
	C888.934326,540.485107 888.873047,540.662476 888.540405,541.028381 
	C880.381287,550.879272 872.434326,560.493896 864.616333,570.212219 
	C833.646912,608.708984 802.691284,647.216919 771.790527,685.768799 
	C762.746948,697.051575 753.902161,708.493774 744.777100,720.008301 
	C744.346069,720.367981 744.156311,720.621277 743.721680,721.081421 
	C735.802673,730.820679 728.180725,740.392029 720.343384,750.151001 
	C719.712952,751.202881 719.297974,752.067200 718.569214,753.050781 
	C715.197205,756.371582 712.138855,759.572998 708.871094,762.519958 
	C700.391113,756.709412 692.176147,751.068542 683.840637,745.611816 
	C646.572388,721.214783 609.276001,696.860779 571.975098,672.513611 
	C562.980530,666.642578 553.930115,660.857239 544.504700,654.773865 
	C540.753662,660.854980 537.290771,666.468933 533.567261,672.268555 
	C526.542419,682.655457 519.720642,692.819153 513.037170,703.073059 
	C509.434540,708.600220 506.068634,714.281555 502.446899,720.040649 
	C502.113251,720.403748 501.965759,720.642395 501.575195,721.090576 
	C498.218414,725.812744 495.088135,730.312927 492.073456,734.889282 
	C468.563263,770.578430 445.096710,806.296387 421.551239,841.962158 
	C418.843292,846.064087 415.733795,849.900879 412.597137,853.618042 
	C359.196533,827.622620 306.009247,801.869751 252.357864,775.892212 
	C249.425369,781.389587 246.777603,786.353210 243.987259,791.671875 
	C231.303284,815.241394 218.718246,838.432434 206.237885,861.679626 
	C199.419388,874.380493 192.778122,887.176514 186.056931,899.929565 
z"/>
<path fill="#832001" opacity="1.000000" stroke="none" 
	d="
M234.149429,724.726685 
	C233.859848,726.215271 233.917953,727.891907 233.229660,729.164917 
	C217.314926,758.597046 201.289642,787.969299 185.347977,817.386963 
	C173.451019,839.340881 161.699463,861.373657 149.782074,883.316467 
	C130.008286,919.724915 110.117340,956.069763 90.344902,992.478943 
	C76.694664,1017.614746 63.160995,1042.813843 49.183704,1068.709961 
	C62.845898,1069.067261 75.836006,1069.406860 89.160995,1069.942017 
	C80.300995,1071.500977 71.140709,1073.622925 61.902882,1074.044189 
	C49.108398,1074.627441 36.255516,1073.939209 23.427946,1073.772339 
	C22.151377,1073.755737 20.876898,1073.578125 18.798927,1073.410645 
	C49.972286,1015.851807 80.857681,958.824707 111.908401,901.238037 
	C112.073715,900.678467 112.168869,900.198242 112.446907,899.998596 
	C113.337593,898.811035 114.001801,897.851074 114.555405,896.831177 
	C133.663651,861.627869 152.793671,826.436279 171.834274,791.196411 
	C175.769852,783.912537 179.367065,776.445862 183.333374,768.915100 
	C183.720428,768.473999 183.894363,768.181213 184.347504,767.708740 
	C190.951752,755.889099 197.170258,744.188721 203.709488,732.670349 
	C204.766449,730.808655 207.080673,728.868652 209.102188,728.484985 
	C217.390533,726.912170 225.790527,725.927734 234.149429,724.726685 
z"/>
<path fill="#86680E" opacity="1.000000" stroke="none" 
	d="
M182.737900,906.537598 
	C182.883881,905.744751 183.108063,905.408691 183.640778,905.392700 
	C183.968018,924.682312 183.985321,943.651855 184.005768,962.621460 
	C184.047928,1001.723572 184.091751,1040.825684 184.134872,1079.927856 
	C183.910507,1079.922119 183.686157,1079.916504 183.125397,1079.898315 
	C182.798019,1022.255310 182.807053,964.624817 182.737900,906.537598 
z"/>
<path fill="#86680E" opacity="1.000000" stroke="none" 
	d="
M112.168869,900.198242 
	C112.168869,900.198242 112.073715,900.678467 111.982460,900.905640 
	C76.599297,901.130737 41.307384,901.128723 5.553265,901.163818 
	C5.065667,900.979187 5.040277,900.757507 5.491468,900.254761 
	C7.796162,899.986633 9.624260,900.007996 11.452392,900.011414 
	C45.024551,900.075012 78.596710,900.136353 112.168869,900.198242 
z"/>
<path fill="#030302" opacity="1.000000" stroke="none" 
	d="
M838.620911,905.118652 
	C838.651611,903.631592 838.682312,902.144531 838.658203,899.911621 
	C837.966858,897.143494 837.476746,895.060425 836.667847,893.109558 
	C833.509888,885.492432 833.510925,877.937073 836.965942,870.445862 
	C837.494812,869.299133 838.495300,868.375305 839.237000,867.319763 
	C840.134766,866.042358 841.610229,864.804993 841.766357,863.428955 
	C843.333069,849.618225 849.421448,838.189392 859.468262,828.742920 
	C870.314514,818.544861 883.502686,813.751526 898.295105,812.052856 
	C898.739929,812.015381 898.911194,811.949951 899.533203,811.957214 
	C910.265076,811.886292 920.226807,813.479248 929.569763,817.916016 
	C950.186096,827.706177 961.903137,843.882019 964.612976,866.399902 
	C966.538147,867.722595 968.487061,869.170105 969.384949,871.105225 
	C972.706543,878.264221 972.493164,885.556396 969.597656,892.895752 
	C968.719849,895.120850 968.528625,897.616821 968.000122,900.259155 
	C968.012695,900.707153 968.048035,900.884644 968.083252,901.062073 
	C967.891541,910.050720 968.300354,919.100952 967.385925,928.015503 
	C965.344360,947.920044 957.350342,965.487183 944.779724,981.000916 
	C943.844727,982.154907 942.864990,983.272705 941.432251,984.967773 
	C992.158569,1000.685852 1031.001831,1030.690918 1057.133057,1076.342773 
	C1056.859131,1076.880249 1056.585205,1077.417847 1056.311279,1077.955322 
	C1004.207520,1077.955322 952.103760,1077.955322 899.543030,1078.037476 
	C898.907166,1078.063110 898.728333,1078.006714 897.805298,1077.920410 
	C847.483704,1077.890625 797.906250,1077.890625 747.410583,1077.890625 
	C748.388611,1075.681641 748.766174,1074.252563 749.562683,1073.117432 
	C759.219849,1059.355713 768.565613,1045.353149 778.736084,1031.979004 
	C791.523193,1015.164124 808.248779,1003.108948 827.907654,995.538635 
	C839.472229,991.085266 851.486328,987.798828 863.590576,983.893188 
	C850.345459,967.453064 840.865662,948.864014 838.918457,926.775513 
	C838.918335,926.283081 838.848755,926.090210 838.763855,925.553467 
	C838.688232,924.523804 838.627930,923.838013 838.701660,922.773804 
	C838.731445,921.879822 838.627136,921.364319 838.537720,920.421753 
	C838.547852,917.714111 838.543213,915.433411 838.693726,912.781860 
	C838.758667,911.891846 838.668396,911.372620 838.598206,910.444580 
	C838.619202,908.396667 838.620056,906.757690 838.620911,905.118652 
M866.552734,943.241516 
	C858.997742,939.905151 851.442749,936.568787 843.898438,933.237122 
	C851.770752,948.421997 859.334351,964.442444 871.606567,977.295776 
	C875.195068,981.054138 881.205078,983.915161 886.385132,984.443604 
	C897.057129,985.532288 907.980164,985.451294 918.672729,984.468018 
	C923.556213,984.018921 929.835876,981.536560 932.555420,977.829346 
	C942.935730,963.679321 952.125610,948.656128 961.744507,933.948853 
	C961.790161,933.879089 961.611877,933.662903 961.420471,933.279114 
	C941.660339,946.905090 921.619751,948.530701 901.510986,934.089722 
	C891.421204,942.555420 880.162964,945.858765 866.552734,943.241516 
M959.296570,908.777832 
	C959.296570,906.505920 959.296570,904.234070 959.296570,901.921875 
	C921.434387,901.921875 884.067139,901.921875 846.679993,901.921875 
	C846.679993,905.311096 846.679993,908.458618 846.679993,912.048218 
	C854.709839,906.212891 862.929504,907.270264 871.060120,909.434753 
	C892.762573,915.212402 914.366150,915.208557 936.038330,909.274292 
	C943.185181,907.317322 950.438965,906.639221 957.431641,910.276062 
	C957.788330,910.461609 958.584839,909.801331 959.296570,908.777832 
M920.894043,922.293335 
	C920.629639,922.493347 920.303833,922.646606 920.110352,922.900635 
	C917.902954,925.799805 915.715637,928.714233 913.522949,931.624634 
	C916.969604,932.910889 920.327454,934.898376 923.880066,935.348083 
	C933.454956,936.560242 944.860046,928.232605 946.218384,919.310059 
	C937.607666,916.657043 929.358948,917.022522 920.894043,922.293335 
M868.977905,932.536926 
	C875.044678,935.670715 881.292480,936.303406 887.787048,933.974548 
	C892.201721,932.391663 892.581055,931.230225 889.742004,927.628357 
	C882.573608,918.533813 869.700256,915.233948 858.248840,919.854492 
	C859.909302,925.386230 863.670715,929.122070 868.977905,932.536926 
M898.217529,867.823425 
	C897.792358,875.383057 897.367249,882.942688 896.924133,890.821960 
	C899.977966,890.821960 901.656982,890.630920 903.276672,890.859863 
	C907.183044,891.411987 908.614014,889.854431 908.468872,885.945435 
	C908.248291,880.005493 908.411133,874.051331 908.411133,867.735779 
	C905.008667,867.735779 902.047302,867.735779 898.217529,867.823425 
M858.945923,869.771667 
	C855.546326,868.957703 852.146729,868.143738 848.848389,867.354004 
	C848.403198,868.983521 848.247009,869.292664 848.244934,869.602783 
	C848.217651,873.744141 848.204041,877.885742 848.202332,882.027222 
	C848.198608,891.384705 848.202087,891.384705 858.973022,890.281677 
	C858.973022,883.845825 858.973022,877.286682 858.945923,869.771667 
M933.656738,890.675110 
	C935.975586,890.004700 939.976257,892.549500 940.203491,887.877930 
	C940.521790,881.333679 940.283691,874.762390 940.283691,868.337891 
	C936.484009,868.337891 933.268555,868.337891 929.889160,868.337891 
	C929.889160,874.657776 929.708984,880.621460 930.020996,886.559204 
	C930.095276,887.972717 931.815247,889.299683 933.656738,890.675110 
M920.245483,890.683838 
	C921.613342,889.725098 924.108154,888.828796 924.165283,887.797363 
	C924.526917,881.269714 924.348938,874.712036 924.348938,868.179565 
	C920.609802,868.179565 917.516357,868.179565 914.448242,868.179565 
	C914.448242,875.719788 914.448242,883.036560 914.448242,890.675842 
	C916.444092,890.675842 917.915771,890.675842 920.245483,890.683838 
M875.039673,873.598022 
	C875.039673,871.831238 875.039673,870.064453 875.039673,868.235840 
	C871.310852,868.235840 868.096985,868.235840 864.530396,868.235840 
	C864.530396,874.597534 864.582397,880.701355 864.513672,886.803711 
	C864.459656,891.599365 867.894897,890.431152 870.696838,890.706970 
	C873.989380,891.031067 875.169495,889.658997 875.067017,886.494690 
	C874.938416,882.524719 875.037781,878.547424 875.039673,873.598022 
M889.098083,890.627136 
	C889.718140,889.970886 890.864136,889.324829 890.877014,888.656799 
	C891.009338,881.791565 890.958130,874.922791 890.958130,868.189331 
	C887.265076,868.189331 884.164124,868.189331 881.268860,868.189331 
	C881.268860,875.750183 881.268860,883.078430 881.268860,890.660339 
	C883.954041,890.660339 886.090088,890.660339 889.098083,890.627136 
M945.787170,885.300293 
	C945.996033,887.043884 946.204834,888.787537 946.407959,890.483276 
	C949.728455,890.483276 952.515076,890.483276 955.781555,890.483276 
	C955.781555,882.970398 955.781555,875.621704 955.781555,868.240845 
	C952.576050,868.240845 949.333679,868.240845 945.784973,868.240845 
	C945.784973,873.789551 945.784973,879.068909 945.787170,885.300293 
z"/>
<path fill="#86680E" opacity="1.000000" stroke="none" 
	d="
M968.546387,901.067261 
	C968.048035,900.884644 968.012695,900.707153 968.466797,900.277954 
	C1004.949890,899.980225 1040.943481,899.934143 1076.937012,899.888062 
	C1076.933838,900.108215 1076.930786,900.328369 1076.906616,900.878296 
	C1040.926758,901.162903 1004.968140,901.117676 968.546387,901.067261 
z"/>
<path fill="#F6BC1D" opacity="1.000000" stroke="none" 
	d="
M5.016727,541.605896 
	C46.694748,541.113647 88.332542,541.049561 129.970337,541.045105 
	C206.889801,541.036804 283.809265,541.063477 361.249695,541.577698 
	C361.802765,600.048523 361.838104,658.017212 361.844940,715.985901 
	C361.845062,717.237610 361.517883,718.489258 361.369232,719.555603 
	C302.040802,719.555603 243.175842,719.555603 183.904739,719.555603 
	C183.904739,660.369629 183.904739,601.622742 183.904739,542.875916 
	C183.568008,542.875366 183.231293,542.874817 182.894562,542.874268 
	C182.894562,601.708496 182.894562,660.542725 182.894562,719.999268 
	C180.188019,719.999268 178.074509,719.999329 175.961014,719.999268 
	C134.649368,719.998230 93.337708,720.011597 52.026070,719.988831 
	C36.370068,719.980225 20.714106,719.888489 5.058125,719.834656 
	C5.016474,676.223816 4.967228,632.612976 4.937217,589.002136 
	C4.926450,573.355103 4.962057,557.708008 5.016727,541.605896 
z"/>
<path fill="#F6BC1D" opacity="1.000000" stroke="none" 
	d="
M5.007430,181.596588 
	C57.706749,181.104034 110.371185,181.067032 163.035614,181.031464 
	C169.357758,181.027206 175.679901,181.030869 182.464340,181.030869 
	C182.464340,240.692337 182.464340,300.041962 182.464340,359.956604 
	C123.536484,359.956604 64.756798,359.956604 5.513319,359.898407 
	C5.023863,300.577667 4.998203,241.315109 5.007430,181.596588 
z"/>
<path fill="#F6BC1D" opacity="1.000000" stroke="none" 
	d="
M5.004142,361.605957 
	C63.380383,361.122559 121.711304,361.093048 180.042221,361.074188 
	C180.699371,361.073975 181.356552,361.212769 182.469757,361.337982 
	C182.469757,420.710907 182.469757,480.062592 182.469757,539.963806 
	C123.528610,539.963806 64.748833,539.963806 5.504068,539.914917 
	C5.012324,480.597534 4.985574,421.329010 5.004142,361.605957 
z"/>
<path fill="#F6BC1D" opacity="1.000000" stroke="none" 
	d="
M112.446907,899.998596 
	C78.596710,900.136353 45.024551,900.075012 11.452392,900.011414 
	C9.624260,900.007996 7.796162,899.986633 5.503326,899.920227 
	C5.016460,840.607117 4.994317,781.347412 5.483132,721.586914 
	C63.151176,721.078735 120.308411,721.124207 177.465057,720.961975 
	C181.947647,720.949219 183.065018,722.235474 183.002808,726.584717 
	C182.800293,740.740906 183.046631,754.903381 183.120224,769.063477 
	C179.367065,776.445862 175.769852,783.912537 171.834274,791.196411 
	C152.793671,826.436279 133.663651,861.627869 114.555405,896.831177 
	C114.001801,897.851074 113.337593,898.811035 112.446907,899.998596 
z"/>
<path fill="#86680E" opacity="1.000000" stroke="none" 
	d="
M183.333374,768.915100 
	C183.046631,754.903381 182.800293,740.740906 183.002808,726.584717 
	C183.065018,722.235474 181.947647,720.949219 177.465057,720.961975 
	C120.308411,721.124207 63.151176,721.078735 5.530443,721.131470 
	C5.055812,720.953491 5.044829,720.730103 5.045985,720.170715 
	C20.714106,719.888489 36.370068,719.980225 52.026070,719.988831 
	C93.337708,720.011597 134.649368,719.998230 175.961014,719.999268 
	C178.074509,719.999329 180.188019,719.999268 182.894562,719.999268 
	C182.894562,660.542725 182.894562,601.708496 182.894562,542.874268 
	C183.231293,542.874817 183.568008,542.875366 183.904739,542.875916 
	C183.904739,601.622742 183.904739,660.369629 183.904739,719.555603 
	C243.175842,719.555603 302.040802,719.555603 361.369232,719.555603 
	C361.517883,718.489258 361.845062,717.237610 361.844940,715.985901 
	C361.838104,658.017212 361.802765,600.048523 361.690857,541.630859 
	C361.873627,541.164551 362.136139,541.147217 362.716583,541.570923 
	C363.034515,601.213501 363.034515,660.415039 363.034515,719.997742 
	C365.917267,719.997742 368.060913,719.987244 370.204407,719.999451 
	C387.514252,720.098022 404.824127,720.200928 422.099243,720.500366 
	C422.064514,720.698181 421.918030,721.072327 421.456238,721.069336 
	C401.751770,721.066345 382.509064,721.066345 362.775085,721.066345 
	C362.775085,744.277527 362.775085,766.594788 362.775085,788.912048 
	C362.342041,788.793762 361.909027,788.675476 361.518555,788.026123 
	C361.660583,767.189514 361.638275,746.882019 361.956238,726.579834 
	C362.024597,722.213745 360.877167,720.954468 356.410614,720.966919 
	C300.791138,721.121765 245.171097,721.065186 189.551208,721.079041 
	C187.798843,721.079468 186.046509,721.253052 184.068298,721.357910 
	C184.068298,737.273743 184.068298,752.581116 184.068298,767.888489 
	C183.894363,768.181213 183.720428,768.473999 183.333374,768.915100 
z"/>
<path fill="#F6BC1D" opacity="1.000000" stroke="none" 
	d="
M361.664948,539.845764 
	C342.847473,539.898254 324.029999,539.984314 305.212494,539.996033 
	C267.072693,540.019714 228.932892,540.003113 190.793091,540.003113 
	C188.808304,540.003113 186.823517,540.003113 184.406860,540.003113 
	C184.406860,480.377838 184.406860,421.052979 184.406860,361.090363 
	C243.221405,361.090363 301.951721,361.090363 361.214783,361.589233 
	C361.784149,418.681152 361.823425,475.274200 361.848969,531.867249 
	C361.850159,534.526733 361.729065,537.186279 361.664948,539.845764 
z"/>
<path fill="#F6BC1D" opacity="1.000000" stroke="none" 
	d="
M361.654144,359.844147 
	C344.500488,359.898193 327.346863,359.988922 310.193176,359.998901 
	C270.384155,360.022095 230.575165,360.006287 190.766159,360.006287 
	C188.784500,360.006287 186.802841,360.006287 184.396698,360.006287 
	C184.396698,300.344788 184.396698,241.015900 184.396698,181.068237 
	C243.254868,181.068237 301.992401,181.068237 361.250092,181.571075 
	C361.798981,238.338791 361.830902,294.603638 361.847656,350.868500 
	C361.848541,353.860352 361.721588,356.852264 361.654144,359.844147 
z"/>
<path fill="#F6BC1D" opacity="1.000000" stroke="none" 
	d="
M721.114990,181.101624 
	C779.717224,181.075043 838.319458,181.048477 897.457764,181.503357 
	C898.014832,238.307297 898.039062,294.629761 898.048096,350.952240 
	C898.048584,353.947266 897.920593,356.942291 897.852478,359.937317 
	C839.238403,359.955048 780.624329,359.972778 721.496826,359.497009 
	C720.966003,312.360565 720.934937,265.717682 720.940430,219.074783 
	C720.941895,206.417068 721.053772,193.759338 721.114990,181.101624 
z"/>
<path fill="#F6BC1D" opacity="1.000000" stroke="none" 
	d="
M542.147034,181.122589 
	C600.742371,181.095978 659.337769,181.069366 718.440857,181.542480 
	C718.963684,208.353256 719.001709,234.664337 718.988037,260.975372 
	C718.970886,293.946259 718.911377,326.917175 718.870117,359.888062 
	C660.262451,359.913879 601.654724,359.939667 542.541016,359.469238 
	C542.023254,320.004547 541.993652,281.036041 542.007324,242.067551 
	C542.014465,221.752548 542.098022,201.437576 542.147034,181.122589 
z"/>
<path fill="#F6BC1D" opacity="1.000000" stroke="none" 
	d="
M718.890198,539.907227 
	C660.271301,539.934814 601.652405,539.962402 542.533813,539.485657 
	C542.022705,487.362030 542.003967,435.742767 542.008057,384.123474 
	C542.008667,376.466644 542.116821,368.809845 542.175171,361.153015 
	C600.754883,361.124237 659.334656,361.095459 718.426880,361.565002 
	C718.957458,373.719574 718.996521,385.375885 718.990173,397.032166 
	C718.964417,444.657196 718.924744,492.282196 718.890198,539.907227 
z"/>
<path fill="#F6BC1D" opacity="1.000000" stroke="none" 
	d="
M539.919250,539.924683 
	C481.302124,539.950500 422.685028,539.976257 363.536316,539.508911 
	C362.987823,480.700958 362.969635,422.386139 362.964233,364.071289 
	C362.964142,363.077332 363.118256,362.083344 363.200409,361.089386 
	C421.778992,361.081451 480.357574,361.073547 539.454834,361.552643 
	C539.996826,382.026855 540.048462,402.014038 540.037720,422.001221 
	C540.016541,461.309052 539.960693,500.616913 539.919250,539.924683 
z"/>
<path fill="#F6BC1D" opacity="1.000000" stroke="none" 
	d="
M539.904297,359.915894 
	C481.294373,359.940552 422.684418,359.965240 363.538300,359.502380 
	C362.986572,301.031616 362.969452,243.048370 362.965332,185.065125 
	C362.965240,183.737061 363.111359,182.408997 363.189270,181.080933 
	C421.780365,181.062164 480.371429,181.043396 539.472168,181.520950 
	C540.002502,212.667252 540.048584,243.317230 540.036133,273.967194 
	C540.024475,302.616760 539.950684,331.266327 539.904297,359.915894 
z"/>
<path fill="#F6BC1D" opacity="1.000000" stroke="none" 
	d="
M811.943848,540.152405 
	C781.968323,540.099365 751.992798,540.046326 721.504395,539.494873 
	C720.976318,480.535431 720.960266,422.074371 720.953979,363.613281 
	C720.953918,362.784027 721.076050,361.954803 721.141113,361.125549 
	C779.724609,361.101959 838.308044,361.078369 897.431335,361.525879 
	C897.999878,372.764587 897.997742,383.532410 898.065430,394.299805 
	C898.146484,407.211426 898.287170,420.122711 898.227173,433.337280 
	C884.943604,449.947693 871.872986,466.285767 858.716370,482.554291 
	C843.164307,501.785004 827.537964,520.955688 811.943848,540.152405 
z"/>
<path fill="#F6BC1D" opacity="1.000000" stroke="none" 
	d="
M422.133972,720.302490 
	C404.824127,720.200928 387.514252,720.098022 370.204407,719.999451 
	C368.060913,719.987244 365.917267,719.997742 363.034515,719.997742 
	C363.034515,660.415039 363.034515,601.213501 363.110931,541.555908 
	C421.779877,541.080811 480.372375,541.061707 539.477905,541.533447 
	C539.992981,561.717224 539.995178,581.410156 539.997375,601.103088 
	C537.576050,599.695312 535.154724,598.287598 532.065674,596.738647 
	C523.499573,597.744812 515.623535,599.100464 507.693390,599.952759 
	C503.664246,600.385803 501.193634,602.124207 498.982269,605.477722 
	C474.706879,642.291016 450.291321,679.011963 425.880310,715.735718 
	C424.795868,717.367188 423.390076,718.785095 422.133972,720.302490 
z"/>
<path fill="#F6BC1D" opacity="1.000000" stroke="none" 
	d="
M944.000000,306.126312 
	C943.204773,306.396545 942.409485,306.666779 940.974365,306.999451 
	C939.883728,307.021820 939.433105,306.981781 938.729248,306.705414 
	C937.258362,306.796051 936.040771,307.123047 934.701782,307.579742 
	C934.580505,307.709442 934.226074,307.686737 934.039246,307.339111 
	C931.018188,304.884003 928.230835,303.012604 924.677795,305.849518 
	C923.945557,306.434204 922.201050,306.668823 921.480164,306.202911 
	C916.392456,302.914673 912.060791,304.179657 907.956482,307.736694 
	C907.629333,307.171051 907.345642,306.868744 907.061951,306.566406 
	C906.899658,306.757446 906.737427,306.948486 906.575195,307.139526 
	C907.050110,307.426361 907.525085,307.713165 908.001709,308.388977 
	C908.955017,310.850861 909.906616,312.923676 910.963379,315.317993 
	C911.081116,316.310516 911.093689,316.981598 911.080688,318.001038 
	C911.277344,319.204987 911.499512,320.060516 911.824890,321.254028 
	C911.923035,322.061310 911.917847,322.530579 911.557007,322.997528 
	C909.644409,322.596619 908.087402,322.198059 905.937439,321.647705 
	C907.915161,325.016296 907.444885,329.668274 912.897156,329.393799 
	C913.046875,331.655212 913.080994,333.525177 913.168152,335.686401 
	C913.430420,336.305695 913.639587,336.633636 913.951416,337.344482 
	C914.121887,338.780121 914.189697,339.832916 914.028320,341.037903 
	C914.102417,341.792328 914.405579,342.394562 914.813843,343.365082 
	C915.279724,345.177612 915.640503,346.621857 916.049072,348.407837 
	C917.481140,349.867249 918.721497,351.621490 920.278748,351.973206 
	C923.781982,352.764435 924.372803,349.834747 925.388123,347.179138 
	C926.851624,347.038696 927.925293,347.004211 929.066345,347.306152 
	C930.579773,351.143280 933.018738,352.388611 937.000000,351.000763 
	C937.000000,349.324860 937.000000,347.693695 937.359009,345.965576 
	C938.458801,345.855682 939.199707,345.842712 940.198730,346.112305 
	C942.891541,345.497406 946.587036,351.226440 948.301392,344.853851 
	C949.025513,344.737366 949.448303,344.726562 950.061523,344.982544 
	C951.487549,344.897278 952.723145,344.545258 954.363770,344.101471 
	C956.149658,343.939423 957.530457,343.869110 959.127930,344.094269 
	C963.823730,348.736023 962.725525,351.579224 955.655273,355.742035 
	C952.249817,355.053467 949.650696,354.108948 947.038696,354.071899 
	C935.376099,353.906403 923.709839,354.000031 912.044861,354.000000 
	C902.983337,354.000000 902.996948,353.999969 902.997742,345.118042 
	C903.002319,293.125641 903.029175,241.133194 902.915344,189.141052 
	C902.909546,186.487366 901.673950,183.836365 901.010864,181.184128 
	C901.466370,181.155807 901.921875,181.127472 902.808594,181.265045 
	C903.239868,181.430954 903.631592,181.484131 903.631592,181.484131 
	C903.631592,181.484131 903.949097,181.219788 903.949097,181.219788 
	C912.759949,181.156815 921.570862,181.040085 930.381714,181.039856 
	C977.612305,181.038589 1024.842896,181.066360 1072.612671,181.509094 
	C1073.767822,184.119247 1074.916626,186.303223 1074.921387,188.489700 
	C1075.024414,235.817154 1075.003540,283.144897 1074.979980,330.472595 
	C1074.979248,331.783539 1074.685669,333.094360 1074.528809,334.405243 
	C1073.855103,334.417786 1073.181274,334.430328 1072.507568,334.442871 
	C1072.249512,331.712158 1071.479858,328.912842 1071.835083,326.264374 
	C1072.694214,319.858704 1071.461792,318.085052 1065.121826,317.999390 
	C1064.671021,309.675323 1064.220093,301.351257 1063.937256,292.464905 
	C1063.915283,291.604706 1063.725098,291.306793 1063.535034,291.008850 
	C1060.319946,291.047882 1057.104858,291.086914 1053.389160,290.786072 
	C1051.385620,290.313568 1049.882812,290.180939 1048.380005,290.048279 
	C1048.569092,290.647461 1048.758301,291.246613 1048.947510,291.845764 
	C1047.242188,292.049469 1045.536865,292.253174 1043.561523,292.145813 
	C1044.096436,290.860901 1044.901489,289.887054 1046.134155,288.395813 
	C1044.619629,288.327454 1044.100220,288.169983 1043.674072,288.305511 
	C1039.387939,289.668854 1035.131592,291.128662 1030.825806,292.424622 
	C1030.197632,292.613708 1029.077393,292.331116 1028.652588,291.852020 
	C1024.549927,287.225342 1019.531494,286.770233 1013.913025,288.476013 
	C1014.008240,289.696716 1014.109680,290.997162 1014.275330,293.121216 
	C1012.159790,291.965942 1010.744446,291.193085 1009.329102,290.420197 
	C1008.995300,290.680695 1008.661438,290.941223 1008.327576,291.201721 
	C1009.550354,293.099152 1010.773132,294.996613 1011.995850,296.894043 
	C1000.602295,298.527435 989.208679,300.160767 977.424072,301.454407 
	C977.473328,299.955292 977.913635,298.795837 978.215881,298.000000 
	C972.455078,298.000000 966.727539,298.000000 960.936035,297.686890 
	C960.271423,297.021027 959.675476,296.658936 959.053772,296.348053 
	C959.027710,296.335022 958.763245,296.798737 958.609863,297.040344 
	C959.406616,297.360260 960.203308,297.680115 961.000000,298.399994 
	C961.000000,299.866669 961.000000,300.933319 960.615479,301.988312 
	C959.175415,301.558899 958.115784,301.151245 957.064941,300.721771 
	C952.101807,298.693268 945.015259,301.622192 944.000000,306.126312 
M949.167725,350.521088 
	C949.102844,350.183380 949.037903,349.845703 948.973022,349.507996 
	C948.896912,349.843536 948.820801,350.179047 949.167725,350.521088 
M906.490051,312.548492 
	C906.490051,312.548492 906.457825,312.482147 906.490051,312.548492 
M944.509766,349.451538 
	C944.509766,349.451538 944.541992,349.517761 944.509766,349.451538 
M944.451416,351.490173 
	C944.451416,351.490173 944.517761,351.457977 944.451416,351.490173 
z"/>
<path fill="#F6BC1D" opacity="1.000000" stroke="none" 
	d="
M684.046082,699.179443 
	C670.936035,690.398743 657.766052,681.705994 644.727539,672.820435 
	C610.513000,649.503540 576.355591,626.102661 542.040161,601.986572 
	C541.985229,581.202087 542.065613,561.166260 542.145935,541.130432 
	C600.742188,541.104431 659.338379,541.078369 718.442627,541.547485 
	C718.954224,579.991821 718.957886,617.940979 718.757446,656.156494 
	C707.050964,670.675049 695.548523,684.927246 684.046082,699.179443 
z"/>
<path fill="#852101" opacity="1.000000" stroke="none" 
	d="
M684.225952,699.447388 
	C695.548523,684.927246 707.050964,670.675049 719.007874,655.992554 
	C719.978333,654.692749 720.494324,653.823242 721.303711,652.799377 
	C746.003784,622.368774 770.433716,592.111267 794.799255,561.801941 
	C800.298279,554.961548 805.573242,547.941040 810.951355,541.003479 
	C811.253601,540.927429 811.504761,540.770020 811.824341,540.341797 
	C827.537964,520.955688 843.164307,501.785004 858.716370,482.554291 
	C871.872986,466.285767 884.943604,449.947693 898.419312,433.199615 
	C899.171387,432.274109 899.556580,431.789429 900.214844,431.086609 
	C911.126526,417.631348 921.810242,404.430023 932.389160,391.145325 
	C940.350952,381.147186 948.178406,371.042114 956.065674,360.984650 
	C956.363525,360.916138 956.609436,360.763855 957.218140,360.168427 
	C962.153137,354.211884 966.673523,348.614716 972.002808,342.015961 
	C966.686401,342.739960 962.798767,343.269379 958.911194,343.798798 
	C957.530457,343.869110 956.149658,343.939423 954.016235,344.051636 
	C952.132690,344.300934 951.001892,344.508362 949.871094,344.715759 
	C949.448303,344.726562 949.025513,344.737366 947.885010,344.809906 
	C944.758362,345.191010 942.349487,345.510376 939.940552,345.829773 
	C939.199707,345.842712 938.458801,345.855682 936.948425,345.923218 
	C933.785583,346.308472 931.392273,346.639130 928.998962,346.969757 
	C927.925293,347.004211 926.851624,347.038696 924.982666,347.130066 
	C921.458679,347.480042 918.730042,347.773071 916.001343,348.066101 
	C915.640503,346.621857 915.279724,345.177612 914.854370,343.087494 
	C914.612366,341.922974 914.434937,341.404358 914.257507,340.885712 
	C914.189697,339.832916 914.121887,338.780121 913.958252,337.026855 
	C913.613220,336.015961 913.364136,335.705536 913.115051,335.395111 
	C913.080994,333.525177 913.046875,331.655212 912.923828,329.013977 
	C912.527527,326.495117 912.220093,324.747498 911.912659,322.999878 
	C911.917847,322.530579 911.923035,322.061310 911.864868,320.917572 
	C911.569824,319.379639 911.338013,318.516144 911.106262,317.652649 
	C911.093689,316.981598 911.081116,316.310516 911.003113,314.905731 
	C911.998779,313.105408 912.918274,311.336487 914.144653,311.089172 
	C920.796570,309.747559 927.524414,308.781891 934.226074,307.686737 
	C934.226074,307.686737 934.580505,307.709442 935.127991,307.612152 
	C936.777771,307.323822 937.880127,307.132782 938.982422,306.941742 
	C939.433105,306.981781 939.883728,307.021820 940.673706,307.097290 
	C942.418152,318.007568 943.841003,328.880219 945.217407,339.758728 
	C945.623230,342.966125 947.750732,343.237457 950.299927,342.956329 
	C961.031799,341.772797 971.760925,340.561829 982.498413,339.431091 
	C988.542297,338.794617 994.600586,338.294861 1002.255859,337.584778 
	C901.345215,462.724518 801.341309,586.739868 700.979370,711.199219 
	C695.257202,707.234314 689.831543,703.474792 684.225952,699.447388 
z"/>
<path fill="#F6BC1D" opacity="1.000000" stroke="none" 
	d="
M810.486572,541.011230 
	C805.573242,547.941040 800.298279,554.961548 794.799255,561.801941 
	C770.433716,592.111267 746.003784,622.368774 721.296326,652.334351 
	C721.038086,615.053162 721.080750,578.082764 721.123413,541.112305 
	C750.756165,541.081238 780.388977,541.050110 810.486572,541.011230 
z"/>
<path fill="#F6BC1D" opacity="1.000000" stroke="none" 
	d="
M955.592407,361.009003 
	C948.178406,371.042114 940.350952,381.147186 932.389160,391.145325 
	C921.810242,404.430023 911.126526,417.631348 899.997314,430.709351 
	C899.497437,407.439819 899.488098,384.329407 899.478760,361.218964 
	C918.025574,361.157104 936.572327,361.095215 955.592407,361.009003 
z"/>
<path fill="#F6BC1D" opacity="1.000000" stroke="none" 
	d="
M959.127930,344.094269 
	C962.798767,343.269379 966.686401,342.739960 972.002808,342.015961 
	C966.673523,348.614716 962.153137,354.211884 957.343384,359.987305 
	C938.118591,360.087341 919.183167,360.009155 899.738525,359.428406 
	C899.207886,300.506866 899.185364,242.087875 899.176514,183.668900 
	C899.176392,182.845078 899.349365,182.021240 899.441528,181.197418 
	C899.791992,181.156479 900.142395,181.115540 900.751831,181.129364 
	C901.673950,183.836365 902.909546,186.487366 902.915344,189.141052 
	C903.029175,241.133194 903.002319,293.125641 902.997742,345.118042 
	C902.996948,353.999969 902.983337,354.000000 912.044861,354.000000 
	C923.709839,354.000031 935.376099,353.906403 947.038696,354.071899 
	C949.650696,354.108948 952.249817,355.053467 955.655273,355.742035 
	C962.725525,351.579224 963.823730,348.736023 959.127930,344.094269 
z"/>
<path fill="#F6BC1D" opacity="1.000000" stroke="none" 
	d="
M1065.079590,318.332428 
	C1071.461792,318.085052 1072.694214,319.858704 1071.835083,326.264374 
	C1071.479858,328.912842 1072.249512,331.712158 1072.507568,334.442871 
	C1073.181274,334.430328 1073.855103,334.417786 1074.528809,334.405243 
	C1074.685669,333.094360 1074.979248,331.783539 1074.979980,330.472595 
	C1075.003540,283.144897 1075.024414,235.817154 1074.921387,188.489700 
	C1074.916626,186.303223 1073.767822,184.119247 1073.078125,181.568573 
	C1074.049438,181.144180 1075.094604,181.085327 1076.528809,181.082855 
	C1076.959595,217.790298 1077.014282,254.441345 1077.037964,291.092438 
	C1077.052490,313.416992 1077.019165,335.741516 1076.622437,358.450745 
	C1070.844727,355.121338 1077.397339,349.624603 1074.385132,345.761047 
	C1071.694214,345.492737 1069.153442,345.239380 1066.612793,344.986023 
	C1066.188721,338.597992 1065.764526,332.209930 1065.753540,325.405396 
	C1067.081055,323.993225 1067.995361,322.997589 1068.909668,322.001984 
	C1067.657349,321.334717 1066.405151,320.667450 1065.152832,320.000183 
	C1065.114258,319.555267 1065.075684,319.110352 1065.079590,318.332428 
z"/>
<path fill="#AC8114" opacity="1.000000" stroke="none" 
	d="
M540.275024,359.913177 
	C539.950684,331.266327 540.024475,302.616760 540.036133,273.967194 
	C540.048584,243.317230 540.002502,212.667252 539.932007,181.558502 
	C540.385315,181.111755 540.888489,181.123795 541.769409,181.129211 
	C542.098022,201.437576 542.014465,221.752548 542.007324,242.067551 
	C541.993652,281.036041 542.023254,320.004547 542.081909,359.431427 
	C541.634521,359.896698 541.140137,359.903564 540.275024,359.913177 
z"/>
<path fill="#AC8114" opacity="1.000000" stroke="none" 
	d="
M719.239563,359.888916 
	C718.911377,326.917175 718.970886,293.946259 718.988037,260.975372 
	C719.001709,234.664337 718.963684,208.353256 718.897949,181.585480 
	C719.351135,181.120117 719.854980,181.111496 720.736938,181.102249 
	C721.053772,193.759338 720.941895,206.417068 720.940430,219.074783 
	C720.934937,265.717682 720.966003,312.360565 721.034546,359.463806 
	C720.593567,359.912689 720.101257,359.901215 719.239563,359.888916 
z"/>
<path fill="#AC8114" opacity="1.000000" stroke="none" 
	d="
M720.755127,361.127991 
	C721.076050,361.954803 720.953918,362.784027 720.953979,363.613281 
	C720.960266,422.074371 720.976318,480.535431 721.043152,539.456299 
	C720.604858,539.909607 720.115051,539.903137 719.257690,539.901917 
	C718.924744,492.282196 718.964417,444.657196 718.990173,397.032166 
	C718.996521,385.375885 718.957458,373.719574 718.882446,361.609039 
	C719.340088,361.146667 719.854614,361.138550 720.755127,361.127991 
z"/>
<path fill="#AC8114" opacity="1.000000" stroke="none" 
	d="
M540.285034,539.917114 
	C539.960693,500.616913 540.016541,461.309052 540.037720,422.001221 
	C540.048462,402.014038 539.996826,382.026855 539.913086,361.584015 
	C540.368713,361.139526 540.884644,361.150696 541.787903,361.157410 
	C542.116821,368.809845 542.008667,376.466644 542.008057,384.123474 
	C542.003967,435.742767 542.022705,487.362030 542.074341,539.441040 
	C541.626648,539.903748 541.138733,539.906616 540.285034,539.917114 
z"/>
<path fill="#AC8114" opacity="1.000000" stroke="none" 
	d="
M720.744507,541.112915 
	C721.080750,578.082764 721.038086,615.053162 721.002930,652.488647 
	C720.494324,653.823242 719.978333,654.692749 719.211914,655.726257 
	C718.957886,617.940979 718.954224,579.991821 718.900208,541.585815 
	C719.355103,541.123962 719.860291,541.118774 720.744507,541.112915 
z"/>
<path fill="#86680E" opacity="1.000000" stroke="none" 
	d="
M362.789307,361.109924 
	C363.118256,362.083344 362.964142,363.077332 362.964233,364.071289 
	C362.969635,422.386139 362.987823,480.700958 363.078308,539.474915 
	C362.903992,539.923218 362.656128,539.912476 362.036591,539.873718 
	C361.729065,537.186279 361.850159,534.526733 361.848969,531.867249 
	C361.823425,475.274200 361.784149,418.681152 361.652527,361.641937 
	C361.831055,361.174042 362.104614,361.152283 362.789307,361.109924 
z"/>
<path fill="#86680E" opacity="1.000000" stroke="none" 
	d="
M362.794739,181.097870 
	C363.111359,182.408997 362.965240,183.737061 362.965332,185.065125 
	C362.969452,243.048370 362.986572,301.031616 363.080444,359.472961 
	C362.907959,359.921173 362.657166,359.911285 362.030243,359.872772 
	C361.721588,356.852264 361.848541,353.860352 361.847656,350.868500 
	C361.830902,294.603638 361.798981,238.338791 361.691467,181.623810 
	C361.875183,181.154068 362.137695,181.134445 362.794739,181.097870 
z"/>
<path fill="#86680E" opacity="1.000000" stroke="none" 
	d="
M899.041077,181.158035 
	C899.349365,182.021240 899.176392,182.845078 899.176514,183.668900 
	C899.185364,242.087875 899.207886,300.506866 899.295227,359.376953 
	C899.110107,359.851044 898.859009,359.873993 898.230225,359.917145 
	C897.920593,356.942291 898.048584,353.947266 898.048096,350.952240 
	C898.039062,294.629761 898.014832,238.307297 897.915649,181.526337 
	C898.105225,181.084793 898.372925,181.101730 899.041077,181.158035 
z"/>
<path fill="#AC8114" opacity="1.000000" stroke="none" 
	d="
M541.769165,541.135742 
	C542.065613,561.166260 541.985229,581.202087 541.830078,601.720825 
	C541.284119,601.971252 540.812988,601.738708 540.169678,601.304626 
	C539.995178,581.410156 539.992981,561.717224 539.938171,541.566650 
	C540.387756,541.119690 540.890076,541.130371 541.769165,541.135742 
z"/>
<path fill="#86680E" opacity="1.000000" stroke="none" 
	d="
M899.060547,361.177673 
	C899.488098,384.329407 899.497437,407.439819 899.724243,430.927521 
	C899.556580,431.789429 899.171387,432.274109 898.594116,432.896454 
	C898.287170,420.122711 898.146484,407.211426 898.065430,394.299805 
	C897.997742,383.532410 897.999878,372.764587 897.887390,361.540375 
	C898.083191,361.101318 898.362793,361.118835 899.060547,361.177673 
z"/>
<path fill="#F6BC1D" opacity="1.000000" stroke="none" 
	d="
M903.725281,181.178040 
	C903.949097,181.219788 903.631592,181.484131 903.631592,181.484131 
	C903.631592,181.484131 903.239868,181.430954 903.146729,181.324783 
	C903.053589,181.218613 903.501465,181.136307 903.725281,181.178040 
z"/>
<path fill="#F6BC1D" opacity="1.000000" stroke="none" 
	d="
M1076.923584,541.151306 
	C1076.962891,583.435730 1077.010010,625.720215 1077.037964,668.004639 
	C1077.049072,684.985229 1077.017822,701.965820 1076.505371,719.454224 
	C1017.283081,719.962097 958.561157,719.962097 899.445801,719.962097 
	C899.334045,717.621338 899.174561,715.835938 899.174316,714.050598 
	C899.166565,658.771667 899.171875,603.492798 899.188965,548.213867 
	C899.189697,545.888306 899.323486,543.562805 899.829773,541.172668 
	C912.906311,541.085205 925.548401,541.036743 938.190491,541.043823 
	C984.434875,541.069641 1030.679199,541.114014 1076.923584,541.151306 
z"/>
<path fill="#F6BC1D" opacity="1.000000" stroke="none" 
	d="
M1076.973511,899.428589 
	C1040.943481,899.934143 1004.949890,899.980225 968.489624,900.007507 
	C968.528625,897.616821 968.719849,895.120850 969.597656,892.895752 
	C972.493164,885.556396 972.706543,878.264221 969.384949,871.105225 
	C968.487061,869.170105 966.538147,867.722595 964.612976,866.399902 
	C961.903137,843.882019 950.186096,827.706177 929.569763,817.916016 
	C920.226807,813.479248 910.265076,811.886292 899.556519,811.496704 
	C899.142883,782.848389 899.174500,754.733154 899.146606,726.617920 
	C899.143372,723.366516 899.127197,720.962952 903.737427,720.976135 
	C961.463684,721.141113 1019.190491,721.123840 1076.917114,721.153259 
	C1076.958862,768.437500 1077.004883,815.721680 1077.039429,863.005920 
	C1077.048218,874.993652 1077.020752,886.981384 1076.973511,899.428589 
z"/>
<path fill="#F6BC1D" opacity="1.000000" stroke="none" 
	d="
M1066.523682,345.387421 
	C1069.153442,345.239380 1071.694214,345.492737 1074.385132,345.761047 
	C1077.397339,349.624603 1070.844727,355.121338 1076.560303,358.915527 
	C1076.935425,361.047211 1077.033447,363.098846 1077.033447,365.150452 
	C1077.031006,423.087830 1077.018677,481.025208 1076.510254,539.471802 
	C1017.245972,539.981018 958.479309,539.981018 899.036987,539.981018 
	C899.036987,535.551880 899.036987,531.758667 899.036987,527.965576 
	C910.889404,513.002075 922.676453,497.986206 934.609253,483.087128 
	C953.399963,459.625244 972.276794,436.232208 991.145447,412.832855 
	C995.411865,407.542084 999.794312,402.344971 1004.487427,397.448608 
	C1005.256531,404.271210 1005.858948,410.746094 1005.987793,417.230377 
	C1006.057739,420.749237 1007.283752,421.624329 1010.729797,421.576691 
	C1029.549927,421.316467 1048.313843,420.624756 1066.808472,416.702118 
	C1070.659058,416.585266 1070.176758,413.790497 1070.036865,411.333710 
	C1069.124023,395.291565 1068.165649,379.251984 1067.234497,363.210876 
	C1067.186646,362.385864 1067.251953,361.554291 1067.450928,360.132629 
	C1067.518555,359.059052 1067.399780,358.578644 1067.281006,358.098267 
	C1066.998901,353.995117 1066.716797,349.891968 1066.523682,345.387421 
M1068.902710,353.783478 
	C1068.902710,353.783478 1068.616577,353.768738 1068.616577,353.768738 
	C1068.616577,353.768738 1069.000000,354.000488 1069.087280,354.526947 
	C1069.370972,354.829132 1069.654663,355.131317 1069.938354,355.433441 
	C1070.100464,355.242279 1070.262573,355.051117 1070.424683,354.859985 
	C1069.949829,354.572937 1069.474854,354.285858 1068.902710,353.783478 
M1073.490234,357.548309 
	C1073.490234,357.548309 1073.458130,357.482147 1073.490234,357.548309 
z"/>
<path fill="#86680E" opacity="1.000000" stroke="none" 
	d="
M1076.923096,720.830933 
	C1019.190491,721.123840 961.463684,721.141113 903.737427,720.976135 
	C899.127197,720.962952 899.143372,723.366516 899.146606,726.617920 
	C899.174500,754.733154 899.142883,782.848389 899.105713,811.424072 
	C898.911194,811.949951 898.739929,812.015381 898.329590,811.583557 
	C898.090576,781.212585 898.090576,751.338806 898.090576,721.069214 
	C890.424805,721.069214 883.625366,721.075806 876.825928,721.068176 
	C832.556885,721.018372 788.287781,720.965515 744.018738,720.913696 
	C744.156311,720.621277 744.346069,720.367981 745.248413,720.060669 
	C796.462585,719.967468 847.016235,719.967468 898.051941,719.967468 
	C898.051941,717.662476 898.051941,716.034058 898.051941,714.405579 
	C898.053223,657.958862 898.056091,601.512085 898.046326,545.065369 
	C898.046082,543.738586 897.904114,542.411865 898.220825,541.114624 
	C898.874084,541.175232 899.134705,541.206238 899.395325,541.237244 
	C899.323486,543.562805 899.189697,545.888306 899.188965,548.213867 
	C899.171875,603.492798 899.166565,658.771667 899.174316,714.050598 
	C899.174561,715.835938 899.334045,717.621338 899.445801,719.962097 
	C958.561157,719.962097 1017.283081,719.962097 1076.466064,719.912964 
	C1076.927734,720.078735 1076.928467,720.293701 1076.923096,720.830933 
z"/>
<path fill="#7D6115" opacity="1.000000" stroke="none" 
	d="
M899.829773,541.172668 
	C899.134705,541.206238 898.874084,541.175232 897.779907,541.089600 
	C894.234802,540.969849 891.523315,540.904846 888.811768,540.839844 
	C888.873047,540.662476 888.934326,540.485107 889.544983,540.118042 
	C892.624756,539.928345 895.155151,539.928345 897.944763,539.928345 
	C897.944763,535.902649 897.944763,532.518738 897.944763,529.134888 
	C898.154968,528.841492 898.365173,528.548096 898.806213,528.110107 
	C899.036987,531.758667 899.036987,535.551880 899.036987,539.981018 
	C958.479309,539.981018 1017.245972,539.981018 1076.474121,539.931885 
	C1076.936890,540.094238 1076.938110,540.305664 1076.931519,540.834229 
	C1030.679199,541.114014 984.434875,541.069641 938.190491,541.043823 
	C925.548401,541.036743 912.906311,541.085205 899.829773,541.172668 
z"/>
<path fill="#F6BC1D" opacity="1.000000" stroke="none" 
	d="
M184.592911,1079.965942 
	C184.091751,1040.825684 184.047928,1001.723572 184.005768,962.621460 
	C183.985321,943.651855 183.968018,924.682312 183.888046,905.217651 
	C184.163834,903.688660 184.500870,902.654602 185.013824,901.331116 
	C241.840591,901.056519 298.491425,901.070435 355.142242,901.087769 
	C361.851471,901.089844 361.857727,901.098633 361.856628,907.982300 
	C361.847534,964.966736 361.835938,1021.951233 361.767242,1079.388672 
	C350.400208,1079.899658 339.091034,1080.004028 327.781891,1080.007690 
	C280.204895,1080.022949 232.627930,1080.007935 184.592911,1079.965942 
z"/>
<path fill="#F6BC1D" opacity="1.000000" stroke="none" 
	d="
M838.848938,927.075073 
	C840.865662,948.864014 850.345459,967.453064 863.590576,983.893188 
	C851.486328,987.798828 839.472229,991.085266 827.907654,995.538635 
	C808.248779,1003.108948 791.523193,1015.164124 778.736084,1031.979004 
	C768.565613,1045.353149 759.219849,1059.355713 749.562683,1073.117432 
	C748.766174,1074.252563 748.388611,1075.681641 747.410583,1077.890625 
	C797.906250,1077.890625 847.483704,1077.890625 897.525818,1077.952637 
	C896.606812,1078.679810 895.232422,1079.898682 893.838135,1079.921875 
	C883.849548,1080.088013 873.856995,1080.011475 863.865662,1080.010864 
	C816.573730,1080.008301 769.281860,1080.005127 721.526978,1079.967285 
	C721.053711,1020.639404 721.043457,961.346619 721.101624,901.601257 
	C758.653442,901.127441 796.136902,901.116455 833.620239,901.061768 
	C836.110779,901.058105 838.389282,901.012573 838.433411,904.784607 
	C838.620056,906.757690 838.619202,908.396667 838.424988,910.635498 
	C838.334045,911.874390 838.436340,912.513611 838.538574,913.152771 
	C838.543213,915.433411 838.547852,917.714111 838.373901,920.621521 
	C838.319458,921.882935 838.443542,922.517578 838.567627,923.152222 
	C838.627930,923.838013 838.688232,924.523804 838.640198,925.680420 
	C838.637573,926.459229 838.743225,926.767151 838.848938,927.075073 
z"/>
<path fill="#F6BC1D" opacity="1.000000" stroke="none" 
	d="
M709.080566,762.774414 
	C712.138855,759.572998 715.197205,756.371582 718.609863,753.523926 
	C718.934937,802.551208 718.905701,851.224670 718.876465,899.898193 
	C660.263428,899.930176 601.650452,899.962158 542.530640,899.490356 
	C542.015869,856.424988 542.022217,813.863403 541.992798,771.301819 
	C541.981384,754.844604 541.888733,738.387451 542.147339,721.635315 
	C544.440674,721.250305 546.419617,721.087524 548.399048,721.081421 
	C568.273499,721.020569 588.148071,720.985352 608.346924,721.057861 
	C631.128052,735.774536 653.550659,750.429443 676.099487,764.887512 
	C678.135559,766.192993 681.076477,766.993896 683.442505,766.715332 
	C692.024170,765.704529 700.539917,764.133850 709.080566,762.774414 
z"/>
<path fill="#F6BC1D" opacity="1.000000" stroke="none" 
	d="
M743.721680,721.081482 
	C788.287781,720.965515 832.556885,721.018372 876.825928,721.068176 
	C883.625366,721.075806 890.424805,721.069214 898.090576,721.069214 
	C898.090576,751.338806 898.090576,781.212585 898.056030,811.555664 
	C883.502686,813.751526 870.314514,818.544861 859.468262,828.742920 
	C849.421448,838.189392 843.333069,849.618225 841.766357,863.428955 
	C841.610229,864.804993 840.134766,866.042358 839.237000,867.319763 
	C838.495300,868.375305 837.494812,869.299133 836.965942,870.445862 
	C833.510925,877.937073 833.509888,885.492432 836.667847,893.109558 
	C837.476746,895.060425 837.966858,897.143494 838.497437,899.571655 
	C799.598511,899.983765 760.805481,899.990051 721.499695,899.502197 
	C720.972473,851.474426 720.963074,803.940735 720.927429,756.407104 
	C720.925842,754.259155 720.687012,752.111328 720.558716,749.963440 
	C728.180725,740.392029 735.802673,730.820679 743.721680,721.081482 
z"/>
<path fill="#F6BC1D" opacity="1.000000" stroke="none" 
	d="
M412.810455,853.860596 
	C415.733795,849.900879 418.843292,846.064087 421.551239,841.962158 
	C445.096710,806.296387 468.563263,770.578430 492.073456,734.889282 
	C495.088135,730.312927 498.218414,725.812744 502.055878,721.147095 
	C512.567383,721.034668 522.318787,720.994446 532.068420,721.107300 
	C534.806885,721.139038 537.540161,721.620361 540.207764,722.365967 
	C540.107727,742.458069 540.068420,762.079651 540.045166,781.701172 
	C539.998413,821.110474 539.960327,860.519714 539.918640,899.929016 
	C481.211548,899.929016 422.504486,899.929016 363.002808,899.929016 
	C363.002808,883.116333 363.002808,866.560608 363.380646,849.609741 
	C368.961914,851.733582 374.131897,854.325745 379.387756,856.730225 
	C381.131866,857.528076 383.187317,858.507568 384.945618,858.267944 
	C394.261078,856.998291 403.527222,855.366760 412.810455,853.860596 
z"/>
<path fill="#F6BC1D" opacity="1.000000" stroke="none" 
	d="
M186.520569,899.958374 
	C192.778122,887.176514 199.419388,874.380493 206.237885,861.679626 
	C218.718246,838.432434 231.303284,815.241394 244.324066,791.843201 
	C273.219482,805.404663 301.654846,819.110046 330.041656,832.915344 
	C340.780304,838.137878 351.406738,843.591187 362.084320,848.939392 
	C362.084320,865.700256 362.084320,882.461121 362.084320,899.987244 
	C303.239197,899.987244 245.111694,899.987244 186.520569,899.958374 
z"/>
<path fill="#832001" opacity="1.000000" stroke="none" 
	d="
M362.337006,848.956482 
	C351.406738,843.591187 340.780304,838.137878 330.041656,832.915344 
	C301.654846,819.110046 273.219482,805.404663 244.466644,791.488159 
	C246.777603,786.353210 249.425369,781.389587 252.357864,775.892212 
	C306.009247,801.869751 359.196533,827.622620 412.597137,853.618042 
	C403.527222,855.366760 394.261078,856.998291 384.945618,858.267944 
	C383.187317,858.507568 381.131866,857.528076 379.387756,856.730225 
	C374.131897,854.325745 368.961914,851.733582 363.421631,849.147705 
	C362.919739,849.045044 362.754700,849.009277 362.337006,848.956482 
z"/>
<path fill="#AC8114" opacity="1.000000" stroke="none" 
	d="
M540.285339,899.925171 
	C539.960327,860.519714 539.998413,821.110474 540.045166,781.701172 
	C540.068420,762.079651 540.107727,742.458069 540.466309,722.382629 
	C541.139587,721.929260 541.486389,721.929749 541.833130,721.930237 
	C541.888733,738.387451 541.981384,754.844604 541.992798,771.301819 
	C542.022217,813.863403 542.015869,856.424988 542.071411,899.445801 
	C541.630005,899.910461 541.140991,899.915894 540.285339,899.925171 
z"/>
<path fill="#AC8114" opacity="1.000000" stroke="none" 
	d="
M720.343384,750.151001 
	C720.687012,752.111328 720.925842,754.259155 720.927429,756.407104 
	C720.963074,803.940735 720.972473,851.474426 721.037720,899.468750 
	C720.596985,899.919739 720.105530,899.910095 719.245239,899.899292 
	C718.905701,851.224670 718.934937,802.551208 718.923584,753.404602 
	C719.297974,752.067200 719.712952,751.202881 720.343384,750.151001 
z"/>
<path fill="#F6BC1D" opacity="1.000000" stroke="none" 
	d="
M888.540405,541.028442 
	C891.523315,540.904846 894.234802,540.969849 897.387329,541.059998 
	C897.904114,542.411865 898.046082,543.738586 898.046326,545.065369 
	C898.056091,601.512085 898.053223,657.958862 898.051941,714.405579 
	C898.051941,716.034058 898.051941,717.662476 898.051941,719.967468 
	C847.016235,719.967468 796.462585,719.967468 745.437622,719.915161 
	C753.902161,708.493774 762.746948,697.051575 771.790527,685.768799 
	C802.691284,647.216919 833.646912,608.708984 864.616333,570.212219 
	C872.434326,560.493896 880.381287,550.879272 888.540405,541.028442 
z"/>
<path fill="#832001" opacity="1.000000" stroke="none" 
	d="
M422.099243,720.500366 
	C423.390076,718.785095 424.795868,717.367188 425.880310,715.735718 
	C450.291321,679.011963 474.706879,642.291016 498.982269,605.477722 
	C501.193634,602.124207 503.664246,600.385803 507.693390,599.952759 
	C515.623535,599.100464 523.499573,597.744812 531.708496,596.718994 
	C506.545929,635.364929 481.106140,673.911316 455.588837,712.406372 
	C436.228851,741.612610 416.708130,770.712524 397.427765,799.970947 
	C394.779877,803.989075 392.762604,805.582275 388.179901,802.332092 
	C383.898346,799.295410 378.854370,797.333679 374.165009,794.268066 
	C382.487000,781.165100 390.841705,768.727051 399.077789,756.210938 
	C406.756866,744.541260 414.309662,732.788513 421.918030,721.072327 
	C421.918030,721.072327 422.064514,720.698181 422.099243,720.500366 
z"/>
<path fill="#F6BC1D" opacity="1.000000" stroke="none" 
	d="
M184.347504,767.708740 
	C184.068298,752.581116 184.068298,737.273743 184.068298,721.357910 
	C186.046509,721.253052 187.798843,721.079468 189.551208,721.079041 
	C245.171097,721.065186 300.791138,721.121765 356.410614,720.966919 
	C360.877167,720.954468 362.024597,722.213745 361.956238,726.579834 
	C361.638275,746.882019 361.660583,767.189514 361.353821,787.869934 
	C345.414764,780.253052 329.670563,772.285828 313.954102,764.264160 
	C288.445892,751.244751 262.958588,738.184387 237.446381,725.172852 
	C236.593445,724.737915 235.566391,724.644348 234.384964,724.559143 
	C225.790527,725.927734 217.390533,726.912170 209.102188,728.484985 
	C207.080673,728.868652 204.766449,730.808655 203.709488,732.670349 
	C197.170258,744.188721 190.951752,755.889099 184.347504,767.708740 
z"/>
<path fill="#832001" opacity="1.000000" stroke="none" 
	d="
M708.871033,762.519897 
	C700.539917,764.133850 692.024170,765.704529 683.442505,766.715332 
	C681.076477,766.993896 678.135559,766.192993 676.099487,764.887512 
	C653.550659,750.429443 631.128052,735.774536 608.196289,720.815796 
	C607.137390,720.005310 606.553528,719.551819 605.654785,718.954651 
	C584.542480,705.218384 563.745117,691.625793 542.758362,677.810547 
	C541.847046,677.296265 541.125183,677.004639 540.177917,676.461609 
	C537.910950,674.834534 535.869385,673.458740 533.827820,672.082947 
	C537.290771,666.468933 540.753662,660.854980 544.504700,654.773865 
	C553.930115,660.857239 562.980530,666.642578 571.975098,672.513611 
	C609.276001,696.860779 646.572388,721.214783 683.840637,745.611816 
	C692.176147,751.068542 700.391113,756.709412 708.871033,762.519897 
z"/>
<path fill="#F6BC1D" opacity="1.000000" stroke="none" 
	d="
M421.456238,721.069336 
	C414.309662,732.788513 406.756866,744.541260 399.077789,756.210938 
	C390.841705,768.727051 382.487000,781.165100 374.011841,793.968018 
	C370.319427,792.677490 366.799255,791.056213 363.027100,789.173462 
	C362.775085,766.594788 362.775085,744.277527 362.775085,721.066345 
	C382.509064,721.066345 401.751770,721.066345 421.456238,721.069336 
z"/>
<path fill="#832001" opacity="1.000000" stroke="none" 
	d="
M1066.462158,416.530365 
	C1048.313843,420.624756 1029.549927,421.316467 1010.729797,421.576691 
	C1007.283752,421.624329 1006.057739,420.749237 1005.987793,417.230377 
	C1005.858948,410.746094 1005.256531,404.271210 1004.785400,397.311401 
	C1010.152832,389.731934 1015.549133,382.604614 1021.033081,375.545380 
	C1024.642578,370.899078 1028.378540,366.351013 1032.822998,360.804138 
	C1033.599854,371.408600 1034.326782,380.760559 1034.956787,390.119049 
	C1035.436157,397.238861 1035.811279,404.365997 1036.196167,411.491821 
	C1036.404907,415.357880 1037.667603,417.409393 1042.259644,417.055695 
	C1050.182617,416.445343 1058.160767,416.552521 1066.462158,416.530365 
z"/>
<path fill="#F6BC1D" opacity="1.000000" stroke="none" 
	d="
M533.567261,672.268555 
	C535.869385,673.458740 537.910950,674.834534 540.079468,676.944702 
	C540.107666,691.763306 540.008972,705.847412 539.448120,719.960266 
	C526.855896,719.957092 514.725891,719.925171 502.595947,719.893311 
	C506.068634,714.281555 509.434540,708.600220 513.037170,703.073059 
	C519.720642,692.819153 526.542419,682.655457 533.567261,672.268555 
z"/>
<path fill="#F6BC1D" opacity="1.000000" stroke="none" 
	d="
M1012.422729,296.919495 
	C1010.773132,294.996613 1009.550354,293.099152 1008.327576,291.201721 
	C1008.661438,290.941223 1008.995300,290.680695 1009.329102,290.420197 
	C1010.744446,291.193085 1012.159790,291.965942 1014.275330,293.121216 
	C1014.109680,290.997162 1014.008240,289.696716 1013.913025,288.476013 
	C1019.531494,286.770233 1024.549927,287.225342 1028.652588,291.852020 
	C1029.077393,292.331116 1030.197632,292.613708 1030.825806,292.424622 
	C1035.131592,291.128662 1039.387939,289.668854 1043.674072,288.305511 
	C1044.100220,288.169983 1044.619629,288.327454 1046.134155,288.395813 
	C1044.901489,289.887054 1044.096436,290.860901 1043.132324,292.163818 
	C1032.932007,293.976898 1022.890808,295.460907 1012.422729,296.919495 
z"/>
<path fill="#86680E" opacity="1.000000" stroke="none" 
	d="
M502.446869,720.040649 
	C514.725891,719.925171 526.855896,719.957092 539.817078,719.954346 
	C541.140076,719.915039 541.631958,719.910339 542.583374,719.941406 
	C562.454895,719.986206 581.866943,720.015991 601.278748,719.964783 
	C602.843140,719.960632 604.406128,719.400208 605.969727,719.098328 
	C606.553528,719.551819 607.137390,720.005310 607.871887,720.700867 
	C588.148071,720.985352 568.273499,721.020569 548.399048,721.081421 
	C546.419617,721.087524 544.440674,721.250305 542.147339,721.635315 
	C541.486389,721.929749 541.139587,721.929260 540.534302,721.912109 
	C537.540161,721.620361 534.806885,721.139038 532.068420,721.107300 
	C522.318787,720.994446 512.567383,721.034668 502.335938,720.960449 
	C501.965759,720.642395 502.113251,720.403748 502.446869,720.040649 
z"/>
<path fill="#F6BC1D" opacity="1.000000" stroke="none" 
	d="
M961.000000,298.399994 
	C966.727539,298.000000 972.455078,298.000000 978.215881,298.000000 
	C977.913635,298.795837 977.473328,299.955292 977.017639,301.449890 
	C973.641418,302.232880 970.280579,302.680725 966.221313,302.843506 
	C964.015259,302.372314 962.507629,302.186157 961.000000,302.000000 
	C961.000000,300.933319 961.000000,299.866669 961.000000,298.399994 
z"/>
<path fill="#F6BC1D" opacity="1.000000" stroke="none" 
	d="
M944.441650,306.135223 
	C945.015259,301.622192 952.101807,298.693268 957.064941,300.721771 
	C958.115784,301.151245 959.175415,301.558899 960.615479,302.309631 
	C961.000000,303.070770 961.000000,303.498901 961.000000,303.927063 
	C955.627747,304.666077 950.255493,305.405090 944.441650,306.135223 
z"/>
<path fill="#F6BC1D" opacity="1.000000" stroke="none" 
	d="
M897.650696,529.265869 
	C897.944763,532.518738 897.944763,535.902649 897.944763,539.928345 
	C895.155151,539.928345 892.624756,539.928345 889.664062,539.863037 
	C891.941345,536.330811 894.648987,532.863770 897.650696,529.265869 
z"/>
<path fill="#F6BC1D" opacity="1.000000" stroke="none" 
	d="
M1065.115723,320.418488 
	C1066.405151,320.667450 1067.657349,321.334717 1068.909668,322.001984 
	C1067.995361,322.997589 1067.081055,323.993225 1065.806396,324.998383 
	C1065.323608,323.617523 1065.201172,322.227173 1065.115723,320.418488 
z"/>
<path fill="#F6BC1D" opacity="1.000000" stroke="none" 
	d="
M1049.305542,291.874664 
	C1048.758301,291.246613 1048.569092,290.647461 1048.380005,290.048279 
	C1049.882812,290.180939 1051.385620,290.313568 1052.958984,290.779358 
	C1051.907593,291.376160 1050.785645,291.639862 1049.305542,291.874664 
z"/>
<path fill="#F6BC1D" opacity="1.000000" stroke="none" 
	d="
M961.378174,303.954132 
	C961.000000,303.498901 961.000000,303.070770 961.000000,302.321320 
	C962.507629,302.186157 964.015259,302.372314 965.789612,302.830322 
	C964.622986,303.395203 963.189697,303.688232 961.378174,303.954132 
z"/>
<path fill="#F6BC1D" opacity="1.000000" stroke="none" 
	d="
M1063.484131,291.203979 
	C1063.725098,291.306793 1063.915283,291.604706 1063.948242,292.003540 
	C1063.575806,291.917999 1063.456543,291.682892 1063.484131,291.203979 
z"/>
<path fill="#F6BC1D" opacity="1.000000" stroke="none" 
	d="
M1067.229858,358.393219 
	C1067.399780,358.578644 1067.518555,359.059052 1067.509521,359.697083 
	C1067.314087,359.465881 1067.246338,359.077026 1067.229858,358.393219 
z"/>
<path fill="#E1E1E1" opacity="1.000000" stroke="none" 
	d="
M866.965576,943.363892 
	C880.162964,945.858765 891.421204,942.555420 901.510986,934.089722 
	C921.619751,948.530701 941.660339,946.905090 961.420471,933.279114 
	C961.611877,933.662903 961.790161,933.879089 961.744507,933.948853 
	C952.125610,948.656128 942.935730,963.679321 932.555420,977.829346 
	C929.835876,981.536560 923.556213,984.018921 918.672729,984.468018 
	C907.980164,985.451294 897.057129,985.532288 886.385132,984.443604 
	C881.205078,983.915161 875.195068,981.054138 871.606567,977.295776 
	C859.334351,964.442444 851.770752,948.421997 843.898438,933.237122 
	C851.442749,936.568787 858.997742,939.905151 866.965576,943.363892 
z"/>
<path fill="#D5D5D5" opacity="1.000000" stroke="none" 
	d="
M959.236572,909.156372 
	C958.584839,909.801331 957.788330,910.461609 957.431641,910.276062 
	C950.438965,906.639221 943.185181,907.317322 936.038330,909.274292 
	C914.366150,915.208557 892.762573,915.212402 871.060120,909.434753 
	C862.929504,907.270264 854.709839,906.212891 846.679993,912.048218 
	C846.679993,908.458618 846.679993,905.311096 846.679993,901.921875 
	C884.067139,901.921875 921.434387,901.921875 959.296570,901.921875 
	C959.296570,904.234070 959.296570,906.505920 959.236572,909.156372 
z"/>
<path fill="#D5D5D5" opacity="1.000000" stroke="none" 
	d="
M921.209351,922.104980 
	C929.358948,917.022522 937.607666,916.657043 946.218384,919.310059 
	C944.860046,928.232605 933.454956,936.560242 923.880066,935.348083 
	C920.327454,934.898376 916.969604,932.910889 913.522949,931.624634 
	C915.715637,928.714233 917.902954,925.799805 920.110352,922.900635 
	C920.303833,922.646606 920.629639,922.493347 921.209351,922.104980 
z"/>
<path fill="#D5D5D5" opacity="1.000000" stroke="none" 
	d="
M868.669189,932.337769 
	C863.670715,929.122070 859.909302,925.386230 858.248840,919.854492 
	C869.700256,915.233948 882.573608,918.533813 889.742004,927.628357 
	C892.581055,931.230225 892.201721,932.391663 887.787048,933.974548 
	C881.292480,936.303406 875.044678,935.670715 868.669189,932.337769 
z"/>
<path fill="#D5D5D5" opacity="1.000000" stroke="none" 
	d="
M898.651733,867.779602 
	C902.047302,867.735779 905.008667,867.735779 908.411133,867.735779 
	C908.411133,874.051331 908.248291,880.005493 908.468872,885.945435 
	C908.614014,889.854431 907.183044,891.411987 903.276672,890.859863 
	C901.656982,890.630920 899.977966,890.821960 896.924133,890.821960 
	C897.367249,882.942688 897.792358,875.383057 898.651733,867.779602 
z"/>
<path fill="#D5D5D5" opacity="1.000000" stroke="none" 
	d="
M858.959473,870.249634 
	C858.973022,877.286682 858.973022,883.845825 858.973022,890.281677 
	C848.202087,891.384705 848.198608,891.384705 848.202332,882.027222 
	C848.204041,877.885742 848.217651,873.744141 848.244934,869.602783 
	C848.247009,869.292664 848.403198,868.983521 848.848389,867.354004 
	C852.146729,868.143738 855.546326,868.957703 858.959473,870.249634 
z"/>
<path fill="#E1E1E1" opacity="1.000000" stroke="none" 
	d="
M933.217529,890.670776 
	C931.815247,889.299683 930.095276,887.972717 930.020996,886.559204 
	C929.708984,880.621460 929.889160,874.657776 929.889160,868.337891 
	C933.268555,868.337891 936.484009,868.337891 940.283691,868.337891 
	C940.283691,874.762390 940.521790,881.333679 940.203491,887.877930 
	C939.976257,892.549500 935.975586,890.004700 933.217529,890.670776 
z"/>
<path fill="#E1E1E1" opacity="1.000000" stroke="none" 
	d="
M919.816406,890.679810 
	C917.915771,890.675842 916.444092,890.675842 914.448242,890.675842 
	C914.448242,883.036560 914.448242,875.719788 914.448242,868.179565 
	C917.516357,868.179565 920.609802,868.179565 924.348938,868.179565 
	C924.348938,874.712036 924.526917,881.269714 924.165283,887.797363 
	C924.108154,888.828796 921.613342,889.725098 919.816406,890.679810 
z"/>
<path fill="#E1E1E1" opacity="1.000000" stroke="none" 
	d="
M875.039185,874.085693 
	C875.037781,878.547424 874.938416,882.524719 875.067017,886.494690 
	C875.169495,889.658997 873.989380,891.031067 870.696838,890.706970 
	C867.894897,890.431152 864.459656,891.599365 864.513672,886.803711 
	C864.582397,880.701355 864.530396,874.597534 864.530396,868.235840 
	C868.096985,868.235840 871.310852,868.235840 875.039673,868.235840 
	C875.039673,870.064453 875.039673,871.831238 875.039185,874.085693 
z"/>
<path fill="#E1E1E1" opacity="1.000000" stroke="none" 
	d="
M888.662109,890.643738 
	C886.090088,890.660339 883.954041,890.660339 881.268860,890.660339 
	C881.268860,883.078430 881.268860,875.750183 881.268860,868.189331 
	C884.164124,868.189331 887.265076,868.189331 890.958130,868.189331 
	C890.958130,874.922791 891.009338,881.791565 890.877014,888.656799 
	C890.864136,889.324829 889.718140,889.970886 888.662109,890.643738 
z"/>
<path fill="#E1E1E1" opacity="1.000000" stroke="none" 
	d="
M945.786072,884.824280 
	C945.784973,879.068909 945.784973,873.789551 945.784973,868.240845 
	C949.333679,868.240845 952.576050,868.240845 955.781555,868.240845 
	C955.781555,875.621704 955.781555,882.970398 955.781555,890.483276 
	C952.515076,890.483276 949.728455,890.483276 946.407959,890.483276 
	C946.204834,888.787537 945.996033,887.043884 945.786072,884.824280 
z"/>
<path fill="#86680E" opacity="1.000000" stroke="none" 
	d="
M838.693787,912.781860 
	C838.436340,912.513611 838.334045,911.874390 838.404907,911.044312 
	C838.668396,911.372620 838.758667,911.891846 838.693787,912.781860 
z"/>
<path fill="#86680E" opacity="1.000000" stroke="none" 
	d="
M838.701660,922.773804 
	C838.443542,922.517578 838.319458,921.882935 838.359131,921.048584 
	C838.627136,921.364319 838.731445,921.879822 838.701660,922.773804 
z"/>
<path fill="#86680E" opacity="1.000000" stroke="none" 
	d="
M838.918457,926.775513 
	C838.743225,926.767151 838.637573,926.459229 838.655579,926.024353 
	C838.848755,926.090210 838.918335,926.283081 838.918457,926.775513 
z"/>
<path fill="#F6BC1D" opacity="1.000000" stroke="none" 
	d="
M934.039246,307.339111 
	C927.524414,308.781891 920.796570,309.747559 914.144653,311.089172 
	C912.918274,311.336487 911.998779,313.105408 910.897949,314.584259 
	C909.906616,312.923676 908.955017,310.850861 908.001709,308.389008 
	C912.060791,304.179657 916.392456,302.914673 921.480164,306.202911 
	C922.201050,306.668823 923.945557,306.434204 924.677795,305.849518 
	C928.230835,303.012604 931.018188,304.884003 934.039246,307.339111 
z"/>
<path fill="#F6BC1D" opacity="1.000000" stroke="none" 
	d="
M929.066345,347.306152 
	C931.392273,346.639130 933.785583,346.308472 936.589478,346.020142 
	C937.000000,347.693695 937.000000,349.324860 937.000000,351.000763 
	C933.018738,352.388611 930.579773,351.143280 929.066345,347.306152 
z"/>
<path fill="#F6BC1D" opacity="1.000000" stroke="none" 
	d="
M916.049133,348.407867 
	C918.730042,347.773071 921.458679,347.480042 924.592834,347.236084 
	C924.372803,349.834747 923.781982,352.764435 920.278748,351.973206 
	C918.721497,351.621490 917.481140,349.867249 916.049133,348.407867 
z"/>
<path fill="#F6BC1D" opacity="1.000000" stroke="none" 
	d="
M911.557007,322.997528 
	C912.220093,324.747498 912.527527,326.495117 912.808228,328.622528 
	C907.444885,329.668274 907.915161,325.016296 905.937439,321.647705 
	C908.087402,322.198059 909.644409,322.596619 911.557007,322.997528 
z"/>
<path fill="#F6BC1D" opacity="1.000000" stroke="none" 
	d="
M940.198730,346.112305 
	C942.349487,345.510376 944.758362,345.191010 947.583618,344.915588 
	C946.587036,351.226440 942.891541,345.497406 940.198730,346.112305 
z"/>
<path fill="#F6BC1D" opacity="1.000000" stroke="none" 
	d="
M950.061523,344.982544 
	C951.001892,344.508362 952.132690,344.300934 953.611084,344.143372 
	C952.723145,344.545258 951.487549,344.897278 950.061523,344.982544 
z"/>
<path fill="#F6BC1D" opacity="1.000000" stroke="none" 
	d="
M960.936035,297.686890 
	C960.203308,297.680115 959.406616,297.360260 958.609863,297.040344 
	C958.763245,296.798737 959.027710,296.335022 959.053772,296.348053 
	C959.675476,296.658936 960.271423,297.021027 960.936035,297.686890 
z"/>
<path fill="#F6BC1D" opacity="1.000000" stroke="none" 
	d="
M948.956238,350.517822 
	C948.820801,350.179047 948.896912,349.843536 948.973022,349.507996 
	C949.037903,349.845703 949.102844,350.183380 948.956238,350.517822 
z"/>
<path fill="#F6BC1D" opacity="1.000000" stroke="none" 
	d="
M914.028320,341.037903 
	C914.434937,341.404358 914.612366,341.922974 914.749268,342.719208 
	C914.405579,342.394562 914.102417,341.792328 914.028320,341.037903 
z"/>
<path fill="#F6BC1D" opacity="1.000000" stroke="none" 
	d="
M938.729248,306.705414 
	C937.880127,307.132782 936.777771,307.323822 935.249268,307.482452 
	C936.040771,307.123047 937.258362,306.796051 938.729248,306.705414 
z"/>
<path fill="#F6BC1D" opacity="1.000000" stroke="none" 
	d="
M907.956482,307.736664 
	C907.525085,307.713165 907.050110,307.426361 906.575195,307.139526 
	C906.737427,306.948486 906.899658,306.757446 907.061951,306.566406 
	C907.345642,306.868744 907.629333,307.171051 907.956482,307.736664 
z"/>
<path fill="#F6BC1D" opacity="1.000000" stroke="none" 
	d="
M911.080688,318.001038 
	C911.338013,318.516144 911.569824,319.379639 911.761597,320.579590 
	C911.499512,320.060516 911.277344,319.204987 911.080688,318.001038 
z"/>
<path fill="#F6BC1D" opacity="1.000000" stroke="none" 
	d="
M906.473938,312.515320 
	C906.457825,312.482147 906.490051,312.548492 906.473938,312.515320 
z"/>
<path fill="#F6BC1D" opacity="1.000000" stroke="none" 
	d="
M913.168152,335.686401 
	C913.364136,335.705536 913.613220,336.015961 913.855530,336.644012 
	C913.639587,336.633636 913.430420,336.305695 913.168152,335.686401 
z"/>
<path fill="#F6BC1D" opacity="1.000000" stroke="none" 
	d="
M944.525879,349.484650 
	C944.541992,349.517761 944.509766,349.451538 944.525879,349.484650 
z"/>
<path fill="#F6BC1D" opacity="1.000000" stroke="none" 
	d="
M944.484619,351.474060 
	C944.517761,351.457977 944.451416,351.490173 944.484619,351.474060 
z"/>
<path fill="#F6BC1D" opacity="1.000000" stroke="none" 
	d="
M1069.000000,353.998779 
	C1069.474854,354.285858 1069.949829,354.572937 1070.424683,354.859985 
	C1070.262573,355.051117 1070.100464,355.242279 1069.938354,355.433472 
	C1069.654663,355.131317 1069.370972,354.829132 1069.043701,354.263489 
	C1069.000000,354.000000 1069.000000,353.998779 1069.000000,353.998779 
z"/>
<path fill="#F6BC1D" opacity="1.000000" stroke="none" 
	d="
M1069.000000,354.000244 
	C1069.000000,354.000488 1068.616577,353.768738 1068.616577,353.768738 
	C1068.616577,353.768738 1068.902710,353.783478 1068.951416,353.891113 
	C1069.000000,353.998779 1069.000000,354.000000 1069.000000,354.000244 
z"/>
<path fill="#F6BC1D" opacity="1.000000" stroke="none" 
	d="
M1073.474121,357.515228 
	C1073.458130,357.482147 1073.490234,357.548309 1073.474121,357.515228 
z"/>
<path fill="#F6BC1D" opacity="1.000000" stroke="none" 
	d="
M605.654785,718.954651 
	C604.406128,719.400208 602.843140,719.960632 601.278748,719.964783 
	C581.866943,720.015991 562.454895,719.986206 542.537842,719.481934 
	C542.021729,706.889160 541.976440,694.791565 542.041687,682.694641 
	C542.050049,681.139282 542.631775,679.586914 542.947815,678.033203 
	C563.745117,691.625793 584.542480,705.218384 605.654785,718.954651 
z"/>
<path fill="#AC8114" opacity="1.000000" stroke="none" 
	d="
M542.758362,677.810547 
	C542.631775,679.586914 542.050049,681.139282 542.041687,682.694641 
	C541.976440,694.791565 542.021729,706.889160 542.078247,719.446045 
	C541.631958,719.910339 541.140076,719.915039 540.279297,719.925659 
	C540.008972,705.847412 540.107666,691.763306 540.304810,677.196045 
	C541.125183,677.004639 541.847046,677.296265 542.758362,677.810547 
z"/>
</svg>