<?xml version="1.0" encoding="UTF-8"?>
<svg width="1200pt" height="1200pt" version="1.1" viewBox="0 0 1200 1200" xmlns="http://www.w3.org/2000/svg">
 <path d="m637.5 175.29c0 20.711-16.789 37.5-37.5 37.5s-37.5-16.789-37.5-37.5c0-20.711 16.789-37.5 37.5-37.5s37.5 16.789 37.5 37.5"/>
 <path d="m517.75 197.21c0 20.711-16.793 37.5-37.5 37.5-20.711 0-37.5-16.789-37.5-37.5 0-20.711 16.789-37.5 37.5-37.5 20.707 0 37.5 16.789 37.5 37.5"/>
 <path d="m412.95 257.76c0 20.707-16.789 37.5-37.5 37.5-20.711 0-37.5-16.793-37.5-37.5 0-20.711 16.789-37.5 37.5-37.5 20.711 0 37.5 16.789 37.5 37.5"/>
 <path d="m335.14 350.48c0 20.711-16.789 37.5-37.5 37.5-20.711 0-37.5-16.789-37.5-37.5s16.789-37.5 37.5-37.5c20.711 0 37.5 16.789 37.5 37.5"/>
 <path d="m548.04 777.54c0-0.046874-0.023437-0.058593-0.046874-0.12109l-48.266-120.71c-2.9883-135.28-113.75-244.48-249.73-244.48-137.83 0.011719-250 112.18-250 250.01 0 69.742 28.777 132.83 75 178.23v221.75h300v-86.977c68.914 0 112.5-44.102 112.5-113.03v-49.992h37.5c13.812 0 24.996-11.195 24.996-25.008 0-3.0781-1.957-9.6797-1.957-9.6797zm-398.04-15.285c-20.699 0-37.5-16.801-37.5-37.5 0-20.711 16.801-37.5 37.5-37.5s37.5 16.789 37.5 37.5c0 20.699-16.801 37.5-37.5 37.5zm0-100.01c-20.699 0-37.5-16.789-37.5-37.5 0-20.699 16.801-37.5 37.5-37.5s37.5 16.789 37.5 37.5c0 20.715-16.801 37.5-37.5 37.5zm99.996 100.01c-20.711 0-37.5-16.801-37.5-37.5 0-20.711 16.789-37.5 37.5-37.5 20.699 0 37.5 16.789 37.5 37.5 0 20.699-16.789 37.5-37.5 37.5zm0-100.01c-20.711 0-37.5-16.789-37.5-37.5 0-20.699 16.789-37.5 37.5-37.5 20.699 0 37.5 16.789 37.5 37.5 0 20.715-16.789 37.5-37.5 37.5zm0-99.996c-20.711 0-37.5-16.801-37.5-37.5 0-20.699 16.789-37.5 37.5-37.5 20.699 0 37.5 16.801 37.5 37.5 0 20.703-16.789 37.5-37.5 37.5zm100.01 200.01c-20.699 0-37.5-16.801-37.5-37.5 0-20.711 16.801-37.5 37.5-37.5 20.711 0 37.5 16.789 37.5 37.5 0 20.699-16.801 37.5-37.5 37.5zm0-100.01c-20.699 0-37.5-16.789-37.5-37.5 0-20.699 16.801-37.5 37.5-37.5 20.711 0 37.5 16.789 37.5 37.5 0 20.715-16.801 37.5-37.5 37.5z"/>
 <path d="m755.76 197.21c0 20.711-16.793 37.5-37.5 37.5-20.711 0-37.5-16.789-37.5-37.5 0-20.711 16.789-37.5 37.5-37.5 20.707 0 37.5 16.789 37.5 37.5"/>
 <path d="m860.58 257.76c0 20.707-16.789 37.5-37.5 37.5-20.707 0-37.5-16.793-37.5-37.5 0-20.711 16.793-37.5 37.5-37.5 20.711 0 37.5 16.789 37.5 37.5"/>
 <path d="m938.38 350.48c0 20.711-16.789 37.5-37.5 37.5s-37.5-16.789-37.5-37.5 16.789-37.5 37.5-37.5 37.5 16.789 37.5 37.5"/>
 <path d="m950 412.25c-136 0-246.74 109.2-249.74 244.48l-48.254 120.71c-0.023437 0.058593-0.058593 0.070312-0.058593 0.12109 0 0-1.9453 6.6016-1.9453 9.6719 0 13.812 11.184 25.008 24.996 25.008h37.5v49.992c0 68.93 43.586 113.03 112.5 113.03v86.977h300v-221.75c46.223-45.395 75-108.48 75-178.23 0-137.84-112.16-250-250-250zm0 350.01c-20.711 0-37.5-16.801-37.5-37.5 0-20.711 16.789-37.5 37.5-37.5 20.699 0 37.5 16.789 37.5 37.5 0 20.699-16.801 37.5-37.5 37.5zm0-100.01c-20.711 0-37.5-16.789-37.5-37.5 0-20.699 16.789-37.5 37.5-37.5 20.699 0 37.5 16.789 37.5 37.5 0 20.715-16.801 37.5-37.5 37.5zm0-99.996c-20.711 0-37.5-16.801-37.5-37.5 0-20.699 16.789-37.5 37.5-37.5 20.699 0 37.5 16.801 37.5 37.5 0 20.703-16.801 37.5-37.5 37.5z"/>
</svg>
